<svg width="270" height="55" viewBox="0 0 270 55" xmlns="http://www.w3.org/2000/svg"><title>positive-planet-centered</title><g fill="#000" fill-rule="nonzero"><path d="M133.243 50.191c-13.115 0-23.736-10.62-23.736-23.736 0-13.115 10.621-23.737 23.736-23.737 1.69 0 3.46.161 5.07.564a2.036 2.036 0 0 1 1.528 2.414 2.036 2.036 0 0 1-2.414 1.528 18.73 18.73 0 0 0-4.264-.482c-10.782 0-19.633 8.85-19.633 19.713 0 10.862 8.851 19.713 19.713 19.713 10.863 0 19.714-8.85 19.714-19.713 0-1.127.885-2.012 2.011-2.012 1.127 0 2.012.885 2.012 2.012 0 13.115-10.621 23.736-23.737 23.736z"/><path d="M132.036 35.306l-10.299-10.3c-.804-.804-.804-2.091 0-2.816.805-.804 2.092-.804 2.816 0l7.483 7.483L153.52 8.19c.805-.805 2.092-.805 2.816 0 .805.805.805 2.092 0 2.816l-24.3 24.3zM189.165 10.684c-.644.644-1.931 1.69-4.345 1.69-3.54 0-6.357-2.333-6.357-6.276 0-3.943 2.816-6.276 6.357-6.276 2.494 0 3.862 1.046 4.184 1.368l-.885 2.333c-.242-.322-1.529-1.287-3.138-1.287-2.092 0-3.621 1.368-3.621 3.781 0 2.414 1.69 3.702 3.62 3.702 1.53 0 2.576-.564 3.3-1.288l.885 2.253zM198.579 8.431h-6.196c.161 1.288 1.046 1.851 2.253 1.851 1.127 0 2.092-.483 2.575-.805l1.126 1.449c-.321.241-1.448 1.448-4.103 1.448s-4.667-1.69-4.667-4.506c0-2.816 2.092-4.506 4.667-4.506 2.575 0 4.345 1.69 4.345 4.265.08.322 0 .804 0 .804zm-2.575-1.609c0-.805-.563-1.77-1.77-1.77-1.127 0-1.77.885-1.77 1.77h3.54zM205.66 6.017h-.161a2.47 2.47 0 0 0-1.046-.24c-.644 0-1.127.32-1.288.643-.241.322-.402.885-.402 1.85v3.863h-2.816v-8.69h2.816V4.65c.483-.966 1.207-1.368 2.172-1.368.564 0 .885.16.885.16l-.16 2.575zM211.936 5.535h-1.931v3.138c0 .724.08.885.24 1.046.162.16.323.241.645.241.402 0 .804-.16.804-.16l.161 2.172c-.241.08-.965.241-2.011.241-.966 0-1.69-.322-2.092-.805-.403-.482-.644-1.207-.644-2.574v-3.3H205.9V3.444h1.207V1.109h2.816v2.334h1.931v2.092h.08zM214.51 2.397c-.965 0-1.609-.564-1.609-1.449 0-.885.644-1.448 1.61-1.448.965 0 1.609.563 1.609 1.448s-.644 1.449-1.61 1.449zm1.368 9.736h-2.816v-8.69h2.816v8.69zM223.04 1.914s-.483-.161-.966-.161c-.966 0-1.046.724-1.046 1.368v.322h1.85v2.092h-1.85v6.517h-2.897V5.535h-1.126V3.443h1.126V2.96c0-.966.161-1.85.724-2.334.564-.563 1.288-.885 2.495-.885.965 0 1.85.242 1.85.242l-.16 1.93zm2.172.483c-.966 0-1.61-.564-1.61-1.449 0-.885.644-1.448 1.61-1.448.965 0 1.61.563 1.61 1.448-.081.885-.725 1.449-1.61 1.449zm1.368 9.736h-2.816v-8.69h2.816v8.69zM236.96 8.431h-6.196c.16 1.288 1.046 1.851 2.253 1.851 1.126 0 2.092-.483 2.575-.805l1.126 1.449c-.322.241-1.448 1.448-4.104 1.448-2.655 0-4.666-1.69-4.666-4.506 0-2.816 2.092-4.506 4.666-4.506 2.575 0 4.345 1.69 4.345 4.265.08.322 0 .804 0 .804zm-2.575-1.609c0-.805-.564-1.77-1.77-1.77-1.127 0-1.77.885-1.77 1.77h3.54zM247.5 12.133h-2.655v-1.127h-.08c-.644.885-1.69 1.288-2.817 1.288-2.494 0-4.103-2.012-4.103-4.506 0-2.495 1.609-4.506 4.103-4.506 1.61 0 2.494.804 2.736 1.207V-.017h2.816v12.15zm-4.828-6.679c-1.207 0-2.011.885-2.011 2.253s.804 2.253 2.011 2.253 2.012-.885 2.012-2.253-.724-2.253-2.012-2.253zM196.326 31.202c-.644.644-1.931 1.69-4.345 1.69-3.54 0-6.357-2.334-6.357-6.276 0-3.943 2.817-6.276 6.357-6.276 2.494 0 3.862 1.046 4.184 1.368l-.885 2.333c-.241-.322-1.529-1.287-3.138-1.287-2.092 0-3.62 1.367-3.62 3.781s1.689 3.702 3.62 3.702c1.529 0 2.575-.564 3.299-1.288l.885 2.253zM205.257 32.65h-2.655l-.08-.885c-.403.403-1.046 1.127-2.495 1.127-1.529 0-3.138-.805-3.138-2.736 0-1.93 1.77-2.575 3.38-2.655l2.172-.08v-.161c0-.886-.644-1.368-1.77-1.368-1.127 0-2.253.482-2.655.804l-.725-1.85c.725-.403 2.092-.885 3.702-.885 1.609 0 2.575.402 3.218.965.644.644 1.046 1.448 1.046 2.977v4.748zm-2.816-3.781l-1.368.08c-.885 0-1.368.403-1.368 1.046 0 .644.564 1.046 1.288 1.046.724 0 1.287-.483 1.448-.804v-1.368zM212.66 26.535h-.161a2.47 2.47 0 0 0-1.046-.241c-.644 0-1.127.322-1.288.644-.24.322-.402.885-.402 1.85v3.863h-2.816v-8.69h2.816v1.207c.483-.966 1.207-1.368 2.173-1.368.563 0 .885.16.885.16l-.161 2.575zM219.419 32.892c-1.207 0-2.253-.402-2.897-1.368v1.127h-2.655V20.5h2.816v4.506h.08c.403-.564 1.288-1.207 2.736-1.207 2.494 0 4.104 1.93 4.104 4.506 0 2.574-1.69 4.586-4.184 4.586zm-.805-6.84c-1.207 0-2.012.886-2.012 2.254 0 1.367.805 2.252 2.012 2.252 1.207 0 2.012-.885 2.012-2.252 0-1.368-.805-2.253-2.012-2.253zM229.155 32.892c-2.736 0-4.828-1.69-4.828-4.506 0-2.816 2.092-4.506 4.828-4.506 2.735 0 4.827 1.69 4.827 4.506 0 2.736-2.011 4.506-4.827 4.506zm0-6.84c-1.288 0-2.012.966-2.012 2.254 0 1.287.724 2.252 2.012 2.252 1.207 0 2.011-.965 2.011-2.252 0-1.288-.724-2.253-2.011-2.253zM243.88 32.65h-2.817v-4.505c0-1.127-.16-2.012-1.368-2.012-1.207 0-1.529.966-1.529 2.253v4.265h-2.816v-8.69h2.816v1.287c.483-.805 1.288-1.448 2.495-1.448 2.494 0 3.138 1.609 3.138 3.7v5.15h.08zM196.89 53.249h-2.897l-5.391-8.288s.08 1.449.08 2.736v5.471h-2.816V41.1h3.057l5.23 8.207s-.08-1.368-.08-2.655V41.18h2.816v12.069zM207.35 49.548h-6.116c.161 1.287 1.046 1.85 2.253 1.85 1.127 0 2.092-.483 2.575-.804l1.126 1.448c-.322.241-1.448 1.448-4.103 1.448s-4.667-1.69-4.667-4.506c0-2.816 2.092-4.506 4.667-4.506 2.575 0 4.345 1.69 4.345 4.265 0 .322-.08.805-.08.805zm-2.576-1.61c0-.804-.563-1.77-1.77-1.77-1.126 0-1.77.885-1.77 1.77h3.54zM217.085 53.249h-2.736v-.966c-.402.564-1.287 1.207-2.574 1.207-1.288 0-2.012-.402-2.495-1.046-.402-.563-.643-1.368-.643-2.575v-5.23h2.816v4.828c0 .966.322 1.69 1.287 1.69.966 0 1.449-.805 1.449-1.931v-4.587h2.816v8.61h.08zM224.085 46.731h-1.93v3.058c0 .724.08.885.24 1.046.162.16.323.241.644.241.403 0 .805-.16.805-.16l.161 2.172c-.241.08-.966.241-2.012.241-.965 0-1.69-.322-2.092-.804-.402-.483-.643-1.207-.643-2.575v-3.38h-1.127v-2.092h1.207v-2.333h2.816v2.333h1.931v2.253zM230.925 47.134h-.161a2.47 2.47 0 0 0-1.046-.242c-.644 0-1.127.322-1.288.644-.241.322-.402.885-.402 1.85v3.863h-2.816v-8.69h2.816v1.207c.483-.966 1.207-1.368 2.173-1.368.563 0 .885.16.885.16l-.161 2.576zM239.454 53.249h-2.655l-.081-.885c-.402.402-1.046 1.126-2.494 1.126-1.53 0-3.138-.804-3.138-2.735 0-1.932 1.77-2.575 3.38-2.656l2.172-.08v-.161c0-.885-.644-1.368-1.77-1.368-1.127 0-2.254.483-2.656.805l-.724-1.851c.724-.402 2.092-.885 3.701-.885 1.61 0 2.575.402 3.219.965.643.644 1.046 1.449 1.046 2.978v4.747zm-2.816-3.862l-1.368.08c-.885 0-1.368.402-1.368 1.046s.563 1.046 1.287 1.046 1.288-.483 1.449-.804v-1.368zM244.12 53.249h-2.816v-12.15h2.817z"/><g><path d="M23.251 28.95h3.38v.884h.16c1.369-1.448 4.346-1.69 6.277-.16 1.93 1.448 2.655 3.54 2.253 5.873-.322 2.173-1.449 3.782-3.54 4.506-1.851.644-3.541.402-5.15-.966v5.391h-3.38V28.95zm3.38 5.47c0 1.61 1.046 2.736 2.655 2.736 1.61 0 2.655-1.046 2.655-2.655 0-1.61-1.046-2.736-2.655-2.736-1.529 0-2.655 1.046-2.655 2.656zM3.78 24.121v5.311H.4V13.983h3.38v.885h.16c2.012-1.609 4.667-1.609 6.598 0 3.3 2.736 2.575 8.449-1.287 10.058-1.85.805-3.701.644-5.23-.724-.161 0-.161 0-.242-.08zm2.655-1.93c1.609 0 2.655-1.127 2.655-2.736 0-1.61-1.127-2.656-2.655-2.656-1.61 0-2.736 1.127-2.736 2.736.08 1.61 1.126 2.736 2.736 2.655zM49.402 29.834v-.885h3.379v11.024h-3.38v-.886h-.16c-2.012 1.61-4.748 1.61-6.679-.08-3.218-2.736-2.494-8.288 1.288-9.977 1.85-.805 3.62-.564 5.552.804zm-2.736 7.322c1.61 0 2.736-1.126 2.736-2.735 0-1.61-1.127-2.656-2.656-2.736-1.609 0-2.735 1.046-2.735 2.655 0 1.77 1.046 2.816 2.655 2.816zM69.115 20.903c.402.966 1.126 1.368 2.011 1.529.966.16 1.932 0 2.736-.644.08-.08.242-.08.322 0 .805.483 1.61.885 2.494 1.368-.08.08-.08.16-.16.241-1.368 1.61-3.139 2.092-5.15 2.012-.966 0-1.85-.241-2.736-.644-2.253-1.046-3.54-3.54-3.138-6.034.402-2.656 2.253-4.587 4.828-4.909 1.93-.322 3.782.08 5.23 1.53 1.448 1.447 1.85 3.137 1.69 5.149 0 .322-.161.482-.564.482h-7.08c-.161-.08-.242-.08-.483-.08zm4.747-2.575c-.16-1.046-1.126-1.69-2.333-1.69-1.288 0-2.253.644-2.414 1.69h4.747zM77.483 35.789h-8.046c.241.643.643 1.126 1.287 1.287 1.207.402 2.334.402 3.46-.402.08-.08.322-.08.402 0 .805.482 1.61.885 2.495 1.367-.08.08-.08.161-.161.242-1.368 1.61-3.138 2.092-5.15 2.011-.965 0-1.85-.241-2.736-.643-2.253-1.046-3.54-3.54-3.138-6.115.403-2.656 2.334-4.587 4.909-4.909 2.494-.321 4.505.403 5.954 2.575.885 1.368 1.046 2.977.724 4.587zm-8.046-2.495h4.747c-.241-1.126-1.126-1.69-2.414-1.69-1.287 0-2.172.644-2.333 1.69z"/><path d="M19.309 25.409c-3.38 0-6.035-2.575-6.035-5.874 0-3.299 2.655-5.874 6.035-5.874 3.38 0 6.034 2.575 6.034 5.874 0 3.3-2.655 5.874-6.034 5.874zm0-3.3c1.528 0 2.574-1.045 2.574-2.574s-1.126-2.655-2.574-2.655c-1.53 0-2.575 1.126-2.575 2.655s1.046 2.575 2.575 2.575zM65.092 39.973h-3.38v-.483-5.552c0-.241 0-.563-.08-.805-.161-.965-.885-1.529-1.931-1.448-1.046 0-1.77.563-2.012 1.61-.08.321-.08.643-.08.965V40.053h-3.38V29.03h3.38v.804h.08c1.207-1.126 2.575-1.368 4.104-1.126 1.77.322 3.138 1.85 3.218 3.862.08 1.61 0 3.219.08 4.828v2.575zM25.665 22.754c.966-.564 1.931-1.046 2.897-1.61.402 1.127 1.287 1.449 2.414 1.288.16 0 .402-.08.563-.161.322-.242.322-.644 0-.805-.322-.16-.644-.322-.966-.402-.724-.241-1.528-.483-2.253-.724-1.206-.483-2.011-1.368-2.092-2.816 0-1.449.644-2.575 1.932-3.219 2.333-1.207 5.39-.483 6.758 1.61 0 .08.08.08.161.24-.965.483-1.93 1.047-2.896 1.53-.403-.725-.966-1.047-1.77-.966-.161 0-.322.08-.403.16-.322.242-.322.645 0 .806.322.16.644.24.966.402.804.241 1.69.483 2.414.804 1.93.886 2.253 2.656 1.77 4.184-.322.966-.966 1.53-1.85 1.932-1.852.804-3.702.724-5.553 0-1.046-.564-1.85-1.449-2.092-2.253zM53.666 13.983h3.54c.08 0 .242.242.322.322.724 2.092 1.368 4.104 2.092 6.196 0 .08.08.241.161.402.08-.322.161-.563.242-.724.643-1.931 1.287-3.943 1.93-5.874.081-.241.242-.322.484-.322h3.379a12.771 12.771 0 0 0-.563 1.61c-1.127 3.057-2.334 6.034-3.46 9.092-.161.322-.242.402-.644.402h-3.138c-.241 0-.322 0-.402-.241-1.368-3.621-2.736-7.161-4.023-10.782.08 0 .08 0 .08-.08zM79.012 32.087h-1.77V28.87h1.77v-1.69c0-.322.08-.483.402-.563.966-.242 1.931-.563 2.977-.885v3.138h2.334v3.218h-2.253v3.863c0 .643.241.965.965 1.045.242 0 .483 0 .724.08h.644v2.978c-1.207.161-2.494.161-3.62-.16-1.369-.484-1.932-1.53-2.012-2.817-.08-1.448-.08-2.897-.08-4.345-.081-.241-.081-.402-.081-.644zM42.482 17.202h-1.77v-3.219h1.77v-2.092l3.38-.965v3.057h2.333v3.219H45.86v4.023c0 .483.322.724.885.804.242 0 .483.08.724.08h.725v2.978c-1.288.161-2.656.241-3.863-.322-1.126-.402-1.609-1.368-1.77-2.494-.08-.885-.08-1.77-.08-2.655v-2.414zM39.666 39.973h-3.38V26.455h3.38v13.518zM39.666 25.087h-3.38V13.983h3.38v11.104zM52.942 25.087h-3.38V13.983h3.38v11.104zM38.056 8.995c1.127 0 2.012.965 2.012 2.011 0 1.127-.966 2.012-2.092 2.012-1.127 0-2.012-.966-2.012-2.012 0-1.126.966-2.011 2.092-2.011zM51.252 8.995c1.127 0 2.012.885 2.012 2.011 0 1.127-.966 2.012-2.092 2.012a1.992 1.992 0 0 1-2.012-2.012c.08-1.126.966-2.011 2.092-2.011zM91 25.248v1.448c0 .08-.16.161-.24.242l-.081-.08v-.805h-.08c-.162.16-.242.402-.403.563-.16-.242-.241-.402-.483-.644v.885c-.241.161-.402.08-.402-.241v-1.448c.644-.161.563.482.885.643.241-.08.161-.724.805-.563zM88.667 26.857c-.322.08-.483 0-.402-.322v-.965c-.161-.08-.644 0-.402-.402h1.207c.08.321.08.321-.403.402v1.287z"/></g></g></svg>