<svg width="28" height="28" viewBox="0 0 28 28" fill="none" xmlns="http://www.w3.org/2000/svg">
<g clip-path="url(#clip0_3064_11072)">
<path d="M14 12.4661C12.913 10.3521 9.954 6.41307 7.202 4.47107C4.566 2.61007 3.561 2.93207 2.902 3.23107C2.139 3.57407 2 4.74607 2 5.43407C2 6.12407 2.378 11.0841 2.624 11.9131C3.439 14.6491 6.337 15.5731 9.007 15.2771C9.143 15.2571 9.282 15.2381 9.422 15.2211C9.284 15.2431 9.146 15.2611 9.007 15.2771C5.095 15.8571 1.62 17.2821 6.177 22.3551C11.19 27.5451 13.047 21.2421 14 18.0471C14.953 21.2421 16.05 27.3181 21.733 22.3551C26 18.0471 22.905 15.8571 18.993 15.2771C18.8542 15.2617 18.7159 15.2431 18.578 15.2211C18.718 15.2381 18.857 15.2571 18.993 15.2771C21.663 15.5741 24.561 14.6491 25.376 11.9131C25.622 11.0851 26 6.12307 26 5.43507C26 4.74507 25.861 3.57407 25.098 3.22907C24.439 2.93107 23.434 2.60907 20.798 4.46907C18.046 6.41407 15.087 10.3531 14 12.4661Z" fill="black"/>
</g>
<defs>
<clipPath id="clip0_3064_11072">
<rect width="28" height="28" fill="white"/>
</clipPath>
</defs>
</svg>
