<svg width="28" height="28" viewBox="0 0 28 28" fill="none" xmlns="http://www.w3.org/2000/svg">
<path d="M14 12.8C12.913 10.686 9.954 6.747 7.202 4.805C4.566 2.944 3.561 3.266 2.902 3.565C2.139 3.908 2 5.08 2 5.768C2 6.458 2.378 11.418 2.624 12.247C3.439 14.983 6.337 15.907 9.007 15.611C9.143 15.591 9.282 15.572 9.422 15.555C9.284 15.577 9.146 15.595 9.007 15.611C5.095 16.191 1.62 17.616 6.177 22.689C11.19 27.879 13.047 21.576 14 18.381C14.953 21.576 16.05 27.652 21.733 22.689C26 18.381 22.905 16.191 18.993 15.611C18.8542 15.5956 18.7159 15.577 18.578 15.555C18.718 15.572 18.857 15.591 18.993 15.611C21.663 15.908 24.561 14.983 25.376 12.247C25.622 11.419 26 6.457 26 5.769C26 5.079 25.861 3.908 25.098 3.563C24.439 3.265 23.434 2.943 20.798 4.803C18.046 6.748 15.087 10.687 14 12.8Z" fill="black"/>
</svg>
