<?xml version="1.0" encoding="UTF-8"?>
<svg width="24px" height="24px" viewBox="0 0 24 24" version="1.1" xmlns="http://www.w3.org/2000/svg" xmlns:xlink="http://www.w3.org/1999/xlink">
    <title>mastodon-24px-black</title>
    <g id="mastodon-24px-black" stroke="none" stroke-width="1" fill="none" fill-rule="evenodd">
        <path d="M12.0392796,0 C15.0545479,0.0250851513 17.9568502,0.357269448 19.6470219,1.1471931 C19.6470219,1.1471931 22.9991555,2.67324958 22.9991555,7.87958221 L22.9995618,8.27840763 C22.9946566,9.32900537 22.9421359,12.2394095 22.5316612,14.3877566 C22.2082655,16.0807457 19.6352043,17.9335557 16.6800405,18.2926354 C15.1390502,18.4797396 13.6218221,18.6517151 12.0039538,18.5762011 C9.35808094,18.4528442 7.27030399,17.9335557 7.27030399,17.9335557 C7.27030399,18.1956567 7.28618787,18.4452152 7.31795563,18.6786105 C7.66193689,21.335697 9.90715484,21.4948713 12.0339426,21.5690923 C14.1805534,21.6438306 16.0919558,21.0305374 16.0919558,21.0305374 L16.1801431,23.0052819 C16.1801431,23.0052819 14.6786719,23.8257215 12.0039538,23.9766203 C10.5290404,24.0591169 8.69769282,23.9388633 6.56467859,23.3643616 C1.93853084,22.1183796 1.14293914,17.1004442 1.0212051,12.0089343 C0.984100363,10.4972307 1.00697315,9.07177342 1.00697315,7.87958221 C1.00697315,2.67324958 4.35923387,1.1471931 4.35923387,1.1471931 C6.04953265,0.357269448 8.94992881,0.0250851513 11.9651972,0 L12.0392796,0 Z M16.1700516,5 C14.8328433,5 13.8202987,5.46697151 13.1509505,6.40103744 L12.5,7.3923839 L11.8491847,6.40103744 C11.1797013,5.46697151 10.1671567,5 8.83008369,5 C7.67441651,5 6.7434436,5.36912752 6.03256556,6.08919045 C5.34319649,6.80925339 5,7.78253067 5,9.00730142 L5,15 L7.6128657,15 L7.6128657,9.18344519 C7.6128657,7.95732232 8.18062119,7.33498046 9.31626745,7.33498046 C10.571904,7.33498046 11.2013456,8.07323549 11.2013456,9.53302849 L11.2013456,12.7167687 L13.7987897,12.7167687 L13.7987897,9.53302849 C13.7987897,8.07323549 14.428096,7.33498046 15.6837325,7.33498046 C16.8193788,7.33498046 17.3871343,7.95732232 17.3871343,9.18344519 L17.3871343,15 L20,15 L20,9.00730142 C20,7.78253067 19.6568035,6.80925339 18.9675697,6.08919045 C18.2565564,5.36912752 17.3255835,5 16.1700516,5 Z" id="Combined-Shape" fill="#212121" fill-rule="nonzero"></path>
    </g>
</svg>