<?xml version="1.0" encoding="UTF-8"?>
<svg width="24px" height="24px" viewBox="0 0 24 24" version="1.1" xmlns="http://www.w3.org/2000/svg" xmlns:xlink="http://www.w3.org/1999/xlink">
    <title>icons/share/reddit</title>
    <g id="icons/share/reddit" stroke="none" stroke-width="1" fill="none" fill-rule="evenodd">
        <g id="Group-4">
            <circle id="Oval" fill="#212121" fill-rule="nonzero" cx="11.9872093" cy="11.9872093" r="10.9360465"></circle>
            <path d="M19.277907,11.9872093 C19.277907,11.1046512 18.5616279,10.3883721 17.6790698,10.3883721 C17.244186,10.3883721 16.8604651,10.5546512 16.5790698,10.8360465 C15.4918605,10.055814 13.9825581,9.54418605 12.3197674,9.48023256 L13.0488372,6.06511628 L15.4151163,6.56395349 C15.4406977,7.16511628 15.9395349,7.65116279 16.5534884,7.65116279 C17.1802326,7.65116279 17.6918605,7.13953488 17.6918605,6.5127907 C17.6918605,5.88604651 17.1802326,5.3744186 16.5534884,5.3744186 C16.105814,5.3744186 15.722093,5.63023256 15.5430233,6.01395349 L12.8953488,5.45116279 C12.8186047,5.43837209 12.7418605,5.45116279 12.677907,5.48953488 C12.6139535,5.52790698 12.5755814,5.59186047 12.55,5.66860465 L11.744186,9.48023256 C10.0430233,9.53139535 8.52093023,10.0302326 7.42093023,10.8360465 C7.13953488,10.5674419 6.74302326,10.3883721 6.32093023,10.3883721 C5.43837209,10.3883721 4.72209302,11.1046512 4.72209302,11.9872093 C4.72209302,12.6395349 5.10581395,13.1895349 5.66860465,13.4453488 C5.64302326,13.5988372 5.63023256,13.7651163 5.63023256,13.9313953 C5.63023256,16.3872093 8.48255814,18.3697674 12.0127907,18.3697674 C15.5430233,18.3697674 18.3953488,16.3872093 18.3953488,13.9313953 C18.3953488,13.7651163 18.3825581,13.6116279 18.3569767,13.4581395 C18.8813953,13.2023256 19.277907,12.6395349 19.277907,11.9872093 Z M8.34186047,13.1255814 C8.34186047,12.4988372 8.85348837,11.9872093 9.48023256,11.9872093 C10.1069767,11.9872093 10.6186047,12.4988372 10.6186047,13.1255814 C10.6186047,13.7523256 10.1069767,14.2639535 9.48023256,14.2639535 C8.85348837,14.2639535 8.34186047,13.7523256 8.34186047,13.1255814 Z M14.6988372,16.1313953 C13.9186047,16.9116279 12.4348837,16.9627907 12,16.9627907 C11.5651163,16.9627907 10.0686047,16.8988372 9.30116279,16.1313953 C9.18604651,16.0162791 9.18604651,15.8244186 9.30116279,15.7093023 C9.41627907,15.594186 9.60813953,15.594186 9.72325581,15.7093023 C10.2093023,16.1953488 11.2581395,16.3744186 12.0127907,16.3744186 C12.7674419,16.3744186 13.8034884,16.1953488 14.3023256,15.7093023 C14.4174419,15.594186 14.6093023,15.594186 14.7244186,15.7093023 C14.8139535,15.8372093 14.8139535,16.0162791 14.6988372,16.1313953 Z M14.494186,14.2639535 C13.8674419,14.2639535 13.355814,13.7523256 13.355814,13.1255814 C13.355814,12.4988372 13.8674419,11.9872093 14.494186,11.9872093 C15.1209302,11.9872093 15.6325581,12.4988372 15.6325581,13.1255814 C15.6325581,13.7523256 15.1209302,14.2639535 14.494186,14.2639535 Z" id="Shape" fill="#FFFFFF" fill-rule="nonzero"></path>
            <rect id="Rectangle" x="0" y="0" width="24" height="24"></rect>
        </g>
    </g>
</svg>