<svg width="28" height="28" viewBox="0 0 28 28" fill="none" xmlns="http://www.w3.org/2000/svg">
<g clip-path="url(#clip0_3064_11073)">
<path d="M12.0662 15.9565C12.0662 15.2903 12.3864 14.2308 14.8726 14.2308C15.6347 14.2308 16.1044 14.286 16.7349 14.4274C16.5334 17.0371 15.2561 17.3816 14.0146 17.3816C13.3354 17.3816 12.0662 17.0274 12.0662 15.9565Z" fill="black"/>
<path d="M5.20875 27H22.7912C23.9075 27 24.978 26.5566 25.7673 25.7673C26.5566 24.978 27 23.9075 27 22.7912V5.20875C27 4.09252 26.5566 3.02201 25.7673 2.23271C24.978 1.44342 23.9075 1 22.7912 1L5.20875 1C4.09252 1 3.02201 1.44342 2.23271 2.23271C1.44342 3.02201 1 4.09252 1 5.20875L1 22.7912C1 23.9075 1.44342 24.978 2.23271 25.7673C3.02201 26.5566 4.09252 27 5.20875 27ZM10.5323 10.6037C11.4536 9.2875 12.6691 8.774 14.351 8.774C15.5372 8.774 16.5464 9.17375 17.2679 9.92937C17.9877 10.6866 18.3989 11.7689 18.4931 13.1518C18.8918 13.3186 19.259 13.5152 19.5949 13.7416C20.9469 14.65 21.6911 16.0085 21.6911 17.5653C21.6911 20.8754 18.9774 23.75 14.0666 23.75C9.84975 23.75 5.46875 21.2962 5.46875 13.9935C5.46875 6.72975 9.71163 4.25 14.0536 4.25C16.0589 4.25 20.7632 4.54575 22.5312 10.3876L20.8737 10.8166C19.5055 6.65662 16.6374 5.99362 14.0097 5.99362C9.66287 5.99362 7.20588 8.63913 7.20588 14.2698C7.20588 19.3186 9.95213 21.9999 14.0666 21.9999C17.4515 21.9999 19.9751 20.2416 19.9751 17.666C19.9751 15.9126 18.5029 15.0741 18.4265 15.0741C18.1389 16.5773 17.3686 19.1074 13.9854 19.1074C12.0143 19.1074 10.3129 17.7456 10.3129 15.9614C10.3129 13.4134 12.7309 12.4904 14.6403 12.4904C15.3553 12.4904 16.2165 12.5391 16.6666 12.6301C16.6666 11.8534 16.0101 10.5241 14.3494 10.5241C12.869 10.5241 12.4644 10.9921 11.9931 11.5381L11.9541 11.582C11.6259 11.3626 10.5323 10.6037 10.5323 10.6037Z" fill="black"/>
</g>
<defs>
<clipPath id="clip0_3064_11073">
<rect width="26" height="26" fill="white" transform="translate(1 1)"/>
</clipPath>
</defs>
</svg>
