<svg width="128" height="74" xmlns="http://www.w3.org/2000/svg" xmlns:xlink="http://www.w3.org/1999/xlink"><defs><path id="a" d="M127.867 73.604H0V0h127.867v73.604z"/></defs><g fill="none" fill-rule="evenodd"><mask id="b" fill="#fff"><use xlink:href="#a"/></mask><path d="M42.072 38.676c-1.317.366-2.306.826-2.968 1.38-.84.654-1.42 1.555-1.738 2.702a4.1 4.1 0 0 0-.118.532c-.12.654-.08 1.207.118 1.664.06.138.148.272.267.401.397.514.956.8 1.678.86.98.109 2.201-.496 3.665-1.811l.03-.046v-.043l1.737-3.918c.198-.465.098-.895-.297-1.292-.456-.582-1.247-.725-2.374-.429zm26.683 24.281a2.86 2.86 0 0 0-1.04.178c-1.376.307-2.375.747-2.998 1.32-.9.643-1.527 1.573-1.885 2.792-.355 1.185-.218 2.091.417 2.715.385.385.9.629 1.542.727.87-.109 1.554-.39 2.048-.846.485-.425.81-.876.98-1.35.285-.713.895-2.127 1.825-4.245.029-.069.142-.306.343-.712-.269-.395-.678-.59-1.232-.579zm1.393-24.117c-.287-.218-.751-.218-1.393 0a5.3 5.3 0 0 0-1.529.816c-.583.417-1.029 1.02-1.335 1.812-.199.494-.298.869-.298 1.127l-.045.208.207.043.892.092c.03 0 .533-.145 1.514-.431 1.038-.496 1.74-1.228 2.106-2.197.258-.723.219-1.212-.119-1.47zM32.411 63.714c-.12.089-.234.188-.342.296-.693.604-1.187 1.297-1.484 2.077a5.842 5.842 0 0 0-.4 2.018c-.04.744.073 1.312.34 1.708.298.445.609.668.935.668 1.504.109 2.81-.96 3.919-3.206.228-.496.386-1.11.475-1.84.01-.692-.085-1.267-.283-1.722a.923.923 0 0 0-.073-.148v.015c-.268-.376-.639-.564-1.113-.564-.665-.07-1.321.163-1.974.698zm30.17-48.368c.051-.297-.024-.533-.222-.713-.307-.384-.811-.478-1.513-.28-.861.227-1.503.538-1.929.934-.683.465-1.088 1.168-1.217 2.108-.128.525-.064.975.193 1.35.246.308.604.466 1.069.476h.03c.632.098 1.424-.267 2.373-1.099l1.217-2.776zM32.946 31.702l-1.975 4.614a53.857 53.857 0 0 1-2.255 4.809 6.347 6.347 0 0 0-.342.593c-.12.16-.362.664-.727 1.515l-.12.355c-.147.2-.132.342.045.43.11.079.248-.004.417-.252a6.82 6.82 0 0 0 .727-.712c.98-1.058 2.29-2.646 3.933-4.763.395-.466.806-.98 1.23-1.544a60.536 60.536 0 0 1 3.488-4.052 33.623 33.623 0 0 1 1.812-1.767c.148-.097.276-.213.385-.341l.491-.4c2.58-2.157 5.222-3.565 7.924-4.215 1.455-.327 2.854-.357 4.2-.09.059.03.692.24 1.9.64.415.225.623.39.623.489-.06.196-.322.241-.787.133l-.045-.045c-2.217-.722-4.027-.9-5.432-.534l-1.024.297c-2.009.613-4.165 1.854-6.47 3.726-.137.128-.263.243-.372.341a48.29 48.29 0 0 0-3.206 2.997 67.496 67.496 0 0 0-4.154 4.705l-.296.386c-.09.109-.179.223-.268.34-1.79 2.207-3.103 3.8-3.933 4.78-.366.426-.649.733-.846.921a6.997 6.997 0 0 1-2.538 1.617c-.298.098-.53.143-.698.133l-.178-.044-.045-.133c0-.059.045-.214.134-.459l4.408-9.261c-.03 0 .182-.506.638-1.515l-1.01 1.261c-3.67 4.878-6.238 7.858-7.702 8.936-.079.04-.163.089-.252.148-1.207.762-1.91 1.02-2.108.772l-.044-.089-.045-.045c0-.199.272-.717.815-1.558.426-.663.971-1.683 1.633-3.059a103.518 103.518 0 0 0 1.722-3.725c1.039-2.225 1.627-3.468 1.765-3.726 1.436-2.898 2.672-4.643 3.712-5.238l.34-.252-.044-.103-.207.045h-.178c-.752.197-1.702.197-2.85 0a23.904 23.904 0 0 1-3.087-.728 19.338 19.338 0 0 0-1.172-.341 15.111 15.111 0 0 0-1.231-.385c-1.01-.298-1.89-.502-2.642-.61-1.968-.227-4.017-.059-6.145.505-2.156.584-4.1 1.504-5.832 2.76-2.72 1.96-4.166 4.077-4.334 6.352-.06 1.246.301 2.232 1.084 2.954 1.573 1.464 3.85 1.954 6.827 1.47 2.68-.426 5.17-1.458 7.465-3.103 1.464-1.038 2.607-2.26 3.428-3.666l.09-.088.148.131c.059.1.03.235-.09.402-.069.348-.43.9-1.082 1.663a12.75 12.75 0 0 1-2.494 2.346c-2.266 1.651-4.833 2.65-7.703 2.996-3.047.386-5.358-.155-6.931-1.619-1.04-.95-1.516-2.206-1.426-3.768.06-1.12.505-2.28 1.336-3.487.822-1.177 1.905-2.262 3.25-3.25a19.82 19.82 0 0 1 6.011-2.896c2.197-.65 4.328-.894 6.397-.726 1.237.09 2.527.47 3.873 1.144.03 0 .075.015.134.045 1.247.641 2.464 1.047 3.65 1.216 1.554.228 3.02.228 4.394 0 .79-.139 1.43-.337 1.913-.594.308-.088.49-.103.55-.044l-.638.504c-1.9 1.572-3.033 2.627-3.398 3.162-.92 1.345-1.93 3.492-3.029 6.44l-.253.639c-.365.948-1.137 2.532-2.314 4.75l-.09.25c0 .1.03.17.09.209.168.1.405 0 .713-.296.286-.287 1.02-1.227 2.195-2.82 1.851-2.356 3.158-4.012 3.92-4.972.385-.533.632-.851.741-.95a24.038 24.038 0 0 1 3.191-3.088h.044c.198-.107.327-.153.386-.133.062.06.017.248-.131.565zM20.509 3.548l-.342-.133c-1.266-.355-2.226-.574-2.878-.654a8.226 8.226 0 0 0-3.89.505c-1.434.524-2.705 1.163-3.814 1.914C7.943 6.358 7.008 7.6 6.781 8.906c-.357 1.67.246 2.864 1.81 3.576 1.177.554 2.493.772 3.947.652 1.326-.107 2.38-.439 3.16-.994 1.02-.74 1.732-1.31 2.138-1.707.059-.07.722-.761 1.989-2.076.455-.457.687-.668.697-.64.199.2.133.495-.192.892-1.465 1.73-3.024 3.136-4.675 4.213-1.04.693-2.261 1.055-3.666 1.085-1.206.028-2.325-.184-3.354-.64-1.069-.495-1.817-1.167-2.241-2.017-.226-.782-.34-1.186-.34-1.216v-.045c-.04-1.484.708-3.004 2.24-4.556a12.016 12.016 0 0 1 5.062-2.967c1.306-.377 2.467-.535 3.488-.477 1.007.06 2.462.371 4.362.936 1.89.554 3.28.845 4.17.876.693.03 1.281-.12 1.766-.445.425-.257.687-.338.787-.238 0 .098-.065.197-.193.297l-.341.34c-.89.822-1.534 1.44-1.93 1.856-.583.691-1.147 1.593-1.69 2.7l-.55 1.218c-.861 1.967-1.548 3.428-2.063 4.379-1.01 1.898-1.96 3.254-2.85 4.065-1.296 1.217-2.489 2.003-3.576 2.36-1.088.367-2.38.41-3.872.134-1.316-.228-2.074-.52-2.271-.877v-.09c.058-.087.311-.054.756.105a5.819 5.819 0 0 0 1.559.43c1.434.139 2.498.075 3.19-.192 1.12-.426 2.38-1.486 3.784-3.175 1.326-1.416 2.814-4.053 4.467-7.911.504-1.177 1.153-2.186 1.945-3.027.385-.398.717-.694.994-.893l.592-.355-.666-.045c-1.236-.059-2.805-.356-4.705-.89zM44.98.61c.762.257 1.193.47 1.292.637.1.07.119.169.06.298a.348.348 0 0 1-.253.103l-.43-.148c-.791-.317-1.39-.5-1.796-.55-3.957-.542-7.143.179-9.558 2.168-.583.514-1.399 1.316-2.448 2.404-.692.752-1.246 1.356-1.662 1.811-.396.395-.652.648-.771.757-1.603 1.593-2.895 2.7-3.874 3.324l-.756.385c-.297.138-.46.238-.49.297-.031.098.054.307.25.623.556.96.705 1.662.447 2.107-.238.477-.499 1.18-.787 2.11-.337 1.028-.435 1.657-.297 1.884.167.317.43.53.788.64.454.128.978.043 1.572-.255.95-.484 1.702-1.384 2.256-2.7.426-1.068.499-1.701.222-1.9-.118-.107-.177-.207-.177-.297 0-.096.06-.162.177-.192.338-.198.59-.311.757-.342.129 0 .322.046.58.134l.43.148c.227.128.45.148.667.06l.178-.06c.812-.267 1.355-.415 1.633-.445h.09c.395 0 .688.147.875.445.198.258.252.555.164.89-.198.783-.53 1.698-.994 2.745l-.134.387c-.109.297-.109.559 0 .788.06.089.12.157.178.207.238.198.55.213.935.044.89-.396 1.48-.792 1.766-1.188.207-.297.618-1.193 1.23-2.686l.105-.342c0-.197-.1-.381-.297-.549l-.297-.297.446-.192c1.137-.338 1.76-.367 1.87-.091.12.288-.02.852-.416 1.692l-.386.787c-.682 1.257-.975 2.014-.875 2.272.069.315.203.499.4.549.228.118.584.05 1.069-.207l.252-.09c.445-.23.738-.397.875-.505.228-.199.456-.519.683-.965l1.425-2.953c.058-.129.228-.243.503-.342.288-.099.51-.103.668-.016.11.011.124.173.045.492l-.92 2.06c-.455.981-.682 1.54-.682 1.68 0 .285.085.514.252.681.229.138.5.167.816.089 1.344-.396 2.197-.802 2.552-1.217.2-.286.412-.667.639-1.143a3.48 3.48 0 0 0 .164-.386l.178-.428c.298-.724.382-1.17.252-1.336-.198-.19-.296-.352-.296-.492l.044-.089c.199-.17.56-.396 1.082-.683l.09-.09c0-.078.214-.508.639-1.29.464-.88.857-1.45 1.173-1.707.603-.465 1.444-.811 2.523-1.04a.76.76 0 0 1 .429.046l.059.164c0 .117-.163.217-.49.296-.257.09-.524.187-.8.296-.544.229-.897.437-1.054.624a146.274 146.274 0 0 1-.965 2.15l-.09.165.164.133c.347.199.53.381.549.55.06.256.06.42 0 .49 0 .07-.04.104-.12.104l-1.216.133-1.38 2.939c-.229.692-.229 1.182 0 1.468.098.168.262.253.49.253.307-.03.767-.16 1.379-.386.624-.229 1-.397 1.129-.505l.281-.09.104.15c.06.098-.006.232-.193.4-1.306.81-2.221 1.217-2.745 1.217a2.29 2.29 0 0 1-1.083-.282 1.874 1.874 0 0 1-.298-.208 1.112 1.112 0 0 1-.34-.429l-.09-.252-.209.132c-1.631.723-2.724 1.103-3.279 1.143-.653 0-1.097-.129-1.335-.386l-.178-.34-.074-.298-.268.177c-1.148.694-2.053 1.026-2.716.994-.395-.028-.766-.191-1.112-.488l-.343-.46-.074-.223-.223.133c-1.186.664-2.022.996-2.507.996h-.09a1.555 1.555 0 0 1-.89-.299c-.356-.238-.535-.582-.535-1.039 0-.613.378-1.676 1.129-3.19l.044-.091c.167-.366.167-.633 0-.8-.167-.16-.396-.16-.682 0-1.03.425-1.573.652-1.633.682l-.134.03-1.425 3.754c-.227.594-.454.91-.68.952-.268.088-.486.088-.654 0l-.223-.313-.03-.297-.267.12c-1.374.553-2.394.805-3.057.756-.395-.03-.721-.224-.979-.579-.355-.455-.503-1.01-.445-1.663.03-.266.307-1.161.831-2.684.337-.792.52-1.352.55-1.678.107-.691.024-1.183-.253-1.47v-.089l.12-.207.34-.178c.535-.218 1.316-.818 2.345-1.796.624-.584 1.623-1.578 2.997-2.983.198-.2.44-.442.728-.728.444-.455.97-1.012 1.573-1.677.88-.91 1.548-1.528 2.003-1.855C35.204 1.542 36.546.838 37.783.472c1.147-.365 2.522-.52 4.125-.459A9.21 9.21 0 0 1 44.98.61zm36.745 64.247c.138-.466.05-.9-.268-1.307-.406-.543-1.108-.677-2.108-.4-1.167.396-2.043.88-2.626 1.455-.91.732-1.459 1.795-1.647 3.19-.128.881-.034 1.584.282 2.107.365.456.87.727 1.513.818.87.109 1.945-.5 3.22-1.826l.045-.044v-.046l1.589-3.976v.029zm20.3 1.291a2.73 2.73 0 0 0-.118.415 6.71 6.71 0 0 0-.192 1.603c0 .584.074 1.078.222 1.484.04.12.089.223.148.313.257.346.57.555.936.623h.03c1.424.158 2.652-.936 3.68-3.28.247-.495.395-1.114.445-1.855 0-.831-.128-1.468-.385-1.914-.288-.416-.66-.624-1.114-.624-.743-.04-1.485.311-2.225 1.054-.208.206-.397.42-.565.639a5.409 5.409 0 0 0-.861 1.542zm-3.531-6.575c-.821.287-1.316.173-1.485-.341l-.059-.165.06-.326c.167-.326.484-.559.95-.698.8-.305 1.31-.212 1.528.283.03.108.01.27-.06.489-.128.278-.438.531-.934.758zm-5.711-20.807c-.488-.149-1.159-.05-2.02.296-.88.337-1.357.634-1.426.891-.74 1.672-1.235 2.985-1.483 3.933v-.045c-.058.06-.09.219-.09.475 0 .309.084.606.253.89.564 1.12 1.81 1.184 3.738.195 1.327-.635 2.172-1.847 2.54-3.637.326-1.573-.179-2.573-1.512-2.998zm11.129.074c-.495-.336-1.376-.094-2.642.728-.95.641-1.563 1.676-1.84 3.1l-.045.135.074.089c.228.229.905.168 2.034-.177a5.465 5.465 0 0 0 1.766-.997c.594-.484.924-1.007.993-1.571.118-.644.006-1.08-.34-1.307zM37.189 63.714l.014.014c1.98.911 3.018.937 3.118.075l.015.007a1.284 1.284 0 0 0-.209-.229l-.4-.43.64-.282c1.523-.446 2.23-.446 2.121 0-.128.456-.572 1.548-1.334 3.28-.843 1.949-1.178 3.117-1.01 3.502.138.366.4.594.786.683.366.079.87-.045 1.514-.371l.342-.12c.623-.307 1.028-.534 1.217-.682.306-.287.613-.732.92-1.335l1.766-4.319c.237-.337.548-.554.935-.654.376-.108.663-.074.862.104.177.208.119.461-.18.758l-1.498 3.145c-.682 1.434-1.063 2.315-1.142 2.641-.09.327 0 .644.267.95.682.317 1.406.307 2.167-.029.48-.222.91-.436 1.291-.644l.594-1.418c.178-.385.459-1.009.847-1.87.652-1.256 1.007-1.973 1.067-2.15.167-.497.138-.828-.09-.995l-.09-.074c0-.168.145-.278.43-.328.277-.108.605-.108.98 0 .278.05.44.076.49.076l.09.192c.177.257.37.385.578.385l.4-.164c1.277-.543 2.242-.762 2.895-.653.673.051 1.109.302 1.305.758.219.385.282.786.193 1.202l-1.751 4.557c-.088.494-.034.874.164 1.142.218.276.496.414.832.414a5.92 5.92 0 0 0 1.468-.178c.612-.184 1.096-.378 1.448-.577-.234-.419-.349-.747-.349-.98l-.045-.164c-.06-.633.07-1.195.386-1.692.219-.503.728-1.156 1.53-1.958.227-.18.454-.38.68-.608 1.762-1.653 3.454-2.453 5.076-2.404h.24c.522.018.973.093 1.348.223.15.04.274.088.372.147.05-.088.09-.181.119-.282.245-.563.514-1.172.801-1.824.206-.554.439-1.118.697-1.692 0-.08.04-.138.119-.177a13.94 13.94 0 0 1 1.069-1.975l.029-.016c.772-1.354 1.619-2.503 2.54-3.441a9.507 9.507 0 0 1 2.372-1.709c.218-.127.44-.24.669-.34a9.34 9.34 0 0 1 3.383-.697h.848c.82.018 1.344.097 1.571.236.308.277.401.505.282.683-.059.118-.218.144-.475.074-.623-.347-1.4-.504-2.33-.474-1.029.048-2.058.305-3.087.771-.307.14-.594.316-.862.534-.405.257-.8.564-1.188.92-1.037 1.029-1.958 2.413-2.759 4.156-.169.327-.333.649-.491.965l-.296.757c-.18.424-.361.855-.55 1.291-.286.653-.567 1.306-.846 1.958a236.973 236.973 0 0 0-2.448 5.21l-.324.741c-.349.733-.378 1.382-.093 1.945.23.279.506.417.832.417 1.2.097 2.373-.233 3.525-.995-.105-.224-.155-.413-.155-.564l-.03-.058c-.06-.675.044-1.219.31-1.635.24-.632.902-1.517 1.99-2.656 1.533-1.613 2.998-2.4 4.392-2.36.822 0 1.46.163 1.916.49.09.03.187.074.296.134l.713-.195c.653-.196 1.048-.297 1.188-.297.464 0 .792.1.978.297-.186.24-.498.391-.934.462-.357.048-.783.726-1.277 2.031-.831 2.197-1.28 3.498-1.35 3.906v.057c-.09.654-.065 1.035.074 1.143.138.109.569.109 1.291 0 .643-.106 1.88-.948 3.71-2.522l1.633-4.126.074-.058-.074-.12c0-.099-.074-.163-.224-.194-.296-.107-.424-.267-.384-.475.03-.316.296-.5.801-.549l.83-.193v-.133l.83-1.632c.882-1.306 2.122-2.538 3.726-3.696.605-.366.92-.485.95-.356l-.045.356h-.132c-1.574 1.186-2.648 2.439-3.22 3.754l-.566 1.264-.074.31v.075c.05.218.262.326.64.326.327 0 .553.06.682.178l.058.193c-.04.249-.222.387-.547.418l-1.545.205-2.152 5.375-.12.697c-.049.217.016.45.194.697.198.327.54.491 1.025.491 1.018 0 2.07-.288 3.145-.862.714-.315 1.24-.691 1.581-1.127.014-.106.042-.214.081-.326l.105-.239c.157-.316.444-.935.86-1.854.02-.06.046-.12.075-.178v.011c.565-1.334.88-2.141.949-2.417.03-.239.011-.436-.06-.595a.828.828 0 0 0-.25-.298l-.104-.133c0-.198.577-.355 1.736-.474.337-.03.573-.015.713.045.01.018.065.074.163.163.06.05-.02.302-.237.757l-1.426 3.295-.459 1.009a4.296 4.296 0 0 0-.446 1.692c-.019.496.06.88.238 1.157.05.168.317.288.803.357h.029c1 .09 1.988-.208 2.968-.892a.108.108 0 0 1 .058-.045 4.67 4.67 0 0 0 .387-.282c-.03-.456-.03-.779 0-.964.018-.198.045-.386.073-.564.011-.159.05-.321.12-.491.04-.07.074-.131.103-.193.04-.108.084-.212.132-.311.03-.08.06-.16.092-.24l.088-.177c.218-.445.455-.864.711-1.26.07-.14.156-.274.254-.401.07-.11.138-.208.208-.297 1.207-1.663 2.516-2.493 3.933-2.493.91.04 1.612.286 2.108.74.246.2.41.427.49.684l.147.178c1.207.8 2.137 1.098 2.79.89.505-.158.724-.47.654-.936l.236.195c.057-.314.006-.531-.148-.654l-.088-.148c0-.129.129-.238.386-.325.308-.08.657-.08 1.051 0 .298.048.467.093.507.133l.044.132c.237.297.46.426.668.386l.387-.118c1.326-.565 2.315-.797 2.967-.697.683.079 1.148.325 1.395.742.229.384.267.825.12 1.32l-1.766 4.615c-.1.504-.04.915.177 1.232.207.247.515.37.92.37.446 0 1.143-.172 2.092-.518 1-.387 1.668-.703 2.004-.95l1.143-.787c.356.04.356.275 0 .712l-.253.15c-1.96 1.316-3.541 2.017-4.748 2.106-1.376.03-2.277-.268-2.701-.891-.307-.396-.372-.934-.193-1.618a78.623 78.623 0 0 1 1.559-4.066l.251-.577c.099-.418.05-.737-.149-.966-.217-.296-.642-.341-1.275-.132-1.543.346-2.444.672-2.702.977-.228.23-.998 1.927-2.315 5.092l-.444.95c-.168.395-.346.677-.534.846-.217.168-.533.232-.95.192-.129 0-.218-.04-.267-.118-.14-.148-.14-.455 0-.92l.623-1.663c.13-.257.504-1.01 1.128-2.257a79.35 79.35 0 0 0 .883-1.817 3.517 3.517 0 0 1-.883.408c-.772.237-1.465.143-2.078-.283-.119-.08-.276-.018-.475.179-.206.188-.34.391-.4.608l-.059.193c-.762 3.464-2.405 5.412-4.926 5.848-.06 0-.13.003-.21.014-.306.06-.606.045-.903-.045a2.603 2.603 0 0 1-.61-.296.068.068 0 0 1-.045-.014 2.962 2.962 0 0 1-.237-.178 5.371 5.371 0 0 1-.563-.491c-.08-.108-.154-.207-.224-.298a3.672 3.672 0 0 1-.237-.355c-.366.261-.826.568-1.38.92a4.342 4.342 0 0 1-2.315.668 3.61 3.61 0 0 1-1.024-.222 5.025 5.025 0 0 1-.474-.283 1.212 1.212 0 0 1-.209-.192c-.266-.257-.52-.693-.756-1.307a1.195 1.195 0 0 1-.09-.318c-1.58 1.34-2.955 2.084-4.125 2.234-1.345.177-2.216.114-2.614-.194-.404-.316-.632-.647-.68-.994a4.399 4.399 0 0 1-.03-1.025l.104-.577.051-.127c-2.24 1.897-3.712 2.89-4.415 2.976-.81.098-1.38-.168-1.707-.802-.177-.326-.267-.515-.267-.564l-.119-.386-.238.297c-.188.267-.504.525-.95.772-.84.524-1.81.761-2.908.712-.812 0-1.454-.38-1.93-1.142a4.312 4.312 0 0 1-.257-.439c-1.378 1.103-2.613 1.656-3.704 1.656-.891-.06-1.563-.254-2.019-.58a3.288 3.288 0 0 1-.34-.564c-.199.119-.417.243-.654.372-.958.514-2.053.772-3.28.772a2.7 2.7 0 0 1-.935-.163c-.504-.189-.955-.521-1.35-.995-.056-.088-.103-.17-.15-.252-1.002.847-1.892 1.307-2.67 1.378-1.327.05-2.183-.251-2.567-.903-.338-.387-.417-.915-.238-1.59.375-1.038.89-2.35 1.542-3.933l.252-.489c.129-.457.08-.792-.148-1.01-.227-.258-.643-.277-1.247-.058-1.475.326-2.354.623-2.641.89-.218.207-.96 1.85-2.226 4.927l-.488.92c-.159.387-.322.663-.491.832-.16.157-.465.236-.92.236a.277.277 0 0 1-.238-.131c-.12-.13-.12-.442 0-.937l.015-.03c-1.189.831-2.083 1.201-2.686 1.115-.714-.04-1.232-.234-1.559-.58a2.326 2.326 0 0 1-.372-.876l-.312.194c-1.572.95-2.814 1.406-3.724 1.366-.515-.05-.995-.296-1.44-.742l-.238-.326c-.228-.674-.24-1.242-.044-1.707.217-.474.739-1.758 1.565-3.853-.447.4-1.117.457-2.011.172-.881-.297-1.395-.115-1.543.549l-.105.163c-.86 3.532-2.68 5.452-5.46 5.758-.663.089-1.138-.01-1.425-.296-.298-.288-.549-.684-.757-1.188-.208-.514-.29-1.246-.252-2.196.03-.95.41-1.93 1.144-2.939a8.84 8.84 0 0 1 .823-.958c-1.494.355-3.513.522-6.062.496-3.018 4.969-6.546 7.917-10.582 8.846-.673.219-1.43.337-2.27.357a4.789 4.789 0 0 1-1.32-.104c-.872-.189-1.57-.51-2.093-.966a1.388 1.388 0 0 1-.49-.564c-.356-.446-.534-.978-.534-1.602-.07-.97.45-1.943 1.558-2.923 1.019-1.04 2.3-1.692 3.844-1.96 1.672-.187 2.84.32 3.503 1.528.163.509.198 1.058-.297 1.782-.258.463-.524.623-.801.475a6.27 6.27 0 0 0 .534-1.055c.078-.623 0-1.147-.238-1.572-.347-.464-1.054-.62-2.122-.46-1.099.098-2.063.411-2.894.935-.851.425-1.485.91-1.9 1.455-.456.533-.694 1.043-.713 1.527-.02.347.025.669.134.966.02.03.03.08.03.149.178.532.569.93 1.172 1.186.85.238 1.535.367 2.048.387.534.018 1.104.01 1.708-.03.623-.08 1.43-.336 2.419-.772 1.048-.466 2.014-1.158 2.894-2.079.939-.829 1.825-1.903 2.657-3.22a41.48 41.48 0 0 0 1.662-2.477c-2.148-.506-2.186-1.04-.119-1.604.287.1.588.183.906.252.089-.187.187-.37.296-.549l.52-.89A483.14 483.14 0 0 1 25.9 59.02a31.364 31.364 0 0 1 1.854-2.613 27.736 27.736 0 0 1 3.206-3.338 4.95 4.95 0 0 0-.386-.046 6.655 6.655 0 0 0-.608-.133l-1.75-.341c-.99-.228-1.875-.39-2.657-.49-.733-.159-1.792-.263-3.176-.312a7.625 7.625 0 0 0-1.56.104 9.464 9.464 0 0 0-2.195.4c-1.248.366-2.266.87-3.057 1.515-.902.603-1.628 1.262-2.182 1.973a5.038 5.038 0 0 0-.757 2.479c-.03.99.242 1.71.816 2.166.614.603 1.465.925 2.553.965a7.84 7.84 0 0 0 2.582-.385 7.406 7.406 0 0 0 2.478-1.188 7.897 7.897 0 0 0 1.276-.83 29.29 29.29 0 0 0 1.099-1.098 14.98 14.98 0 0 0 2.092-2.687c.198-.465.396-.456.594.028a16.527 16.527 0 0 1-1.87 2.968c-.237.288-.455.554-.653.803a9.636 9.636 0 0 1-1.663 1.276 7.94 7.94 0 0 1-2.79 1.365c-1.088.327-2.117.47-3.086.431-1.336-.04-2.365-.392-3.087-1.054-.762-.742-1.12-1.676-1.069-2.805.03-.931.35-1.88.965-2.85.534-.81 1.326-1.603 2.374-2.374 1.029-.672 2.305-1.248 3.83-1.722a22.188 22.188 0 0 1 1.795-.371c.95-.148 2.034-.198 3.25-.148 1.04.04 2.097.113 3.176.223a74.716 74.716 0 0 1 3.012.518c.614.12 1.412.277 2.39.475.1.01.203.024.312.045.95.128 1.875.223 2.775.281h.06c.89.09 2.354.143 4.393.165 2.018.018 4.14-.287 6.365-.92.643-.199.694-.315 1.158-.493 2.175-.871.857.301.55.45-.415.178-1.01.448-1.614.723-1.434.654-3.574 1.046-6.424 1.212-2.859.169-4.889.047-6.047.007-.505-.01-.488-.007-1.024-.025l-.39-.004-.437-.06c0-.01-.45-.064-.43-.064-.01 0-.217-.015-.226-.024-.762.741-1.51 1.628-2.241 2.657-.595.83-1.178 1.83-1.75 2.997a24.23 24.23 0 0 0-.936 1.826c-.386.77-.827 1.572-1.322 2.404 1.385.514 3.172.584 5.358.209.288-.053.545-.095.772-.129.893-.693 1.823-1.03 2.79-1.015.969.01 1.705.238 2.21.681.208.249.386.48.534.698l.057.169zm78.684-24.74c-1.068.524-1.97.771-2.702.742-.356 0-.8-.094-1.335-.283-.583-.167-1.004-.192-1.262-.075a1.83 1.83 0 0 1-.593.12h-.193c-.129.03-.272.239-.43.623-.198.515-.694 1.86-1.486 4.036l-.58 1.739c-.137.394-.393.617-.768.667h-.121a.681.681 0 0 1-.593-.296c-.059-.05-.09-.149-.09-.297.129-.367.129-.6 0-.698-.03-.09-.109-.134-.237-.134-.07 0-.139.03-.208.09a.955.955 0 0 0-.252.133c-1.989.951-3.493 1.411-4.512 1.38-.781-.029-1.498-.37-2.15-1.024l-.743-.949-.134-.223-.207.134c-.742.462-1.522.826-2.345 1.083-1.047.316-1.6.445-1.662.386 0-.091.084-.188.253-.296 2.215-.843 3.423-1.333 3.62-1.473l.475-.473v-.163c0-.81.247-1.638.743-2.478.85-1.406 2.294-2.408 4.332-3.013 1.158-.385 2.019-.193 2.583.578.03.02.05.06.06.12.227.395.32.816.28 1.262a1.66 1.66 0 0 1-.34.89 2.41 2.41 0 0 1-.224.252c-.506.496-1.217.956-2.138 1.38-.977.456-1.824.698-2.536.727l-.787-.103-.252-.104-.044.297-.046.697c.03.516.158.906.386 1.173.229.286.505.446.83.475 1.377.167 2.797-.183 4.26-1.053.197-.11.381-.209.55-.298.612-.365 1.028-.648 1.247-.846a.772.772 0 0 0 .177-.148h.045v-.09c.781-2.087 1.206-3.315 1.275-3.682.041-.236.041-.4 0-.489-.129-.108-.24-.164-.341-.164-.228 0-.387-.075-.475-.223-.03-.03-.03-.07 0-.118.029-.148.301-.222.816-.222h.4c.713-.02 1.103.008 1.173.088v-.044l.046.09c.138.287.38.4.727.341l.414-.208c.704-.415 1.355-.557 1.96-.429l1.113.341c.564.228 1.069.258 1.515.09.336-.12.56-.12.667 0l-.16.161zm5.593-.09c-.364-.275-.806-.36-1.32-.252a8.248 8.248 0 0 0-2.596.98c-1.633.92-2.454 2.162-2.465 3.726-.028.939.149 1.64.535 2.108.336.424.752.652 1.245.682.852.029 1.797-.39 2.836-1.263l.045-.043v-.045l.045-.03c1.374-2.81 2.075-4.359 2.107-4.646.04-.464-.105-.87-.432-1.217zm2.36-.297c.031.06.015.174-.044.342l-.045.133c-1.513 3.533-2.711 6.264-3.591 8.192-.86 1.91-1.385 3.042-1.574 3.4-.82 1.375-1.789 2.533-2.908 3.47-1.761 1.438-3.715 2.14-5.862 2.11-1.405-.03-2.4-.313-2.982-.846-.338-.575-.504-.875-.504-.905 0-.168.069-.272.208-.311.119 0 .26.098.428.297l.254.251c.355.417.662.694.92.831.367.17.923.268 1.675.297 3.325.09 5.907-1.807 7.748-5.684l1.602-3.83-.135-.118c-.078-.088-.192-.088-.34 0-.584.396-1.35.58-2.3.55-.653 0-1.296-.258-1.929-.772l-.772-.789-.118-.205-.179.118c-.612.445-1.4.767-2.359.964-1.008.169-1.563.223-1.662.165 0-.02.063-.104.193-.252.287-.05.86-.199 1.722-.445 1.11-.287 1.71-.487 1.809-.594l.386-.253h.044l.046-.134v-.044l-.09-.549c.058-1.038.565-2.074 1.514-3.102.9-.96 2.083-1.692 3.546-2.196.722-.257 1.36-.405 1.916-.445.376-.029.716.005 1.023.103.228.091.356.174.386.252.068.12.187.18.355.18.12 0 .234-.076.342-.224.028-.049.173-.105.43-.163.257-.09.424-.12.505-.09.032.03.144.128.342.296zm-22.793-30.23a79.795 79.795 0 0 0-1.974 2.805c-.752 1.067-1.127 1.621-1.127 1.662l-.133.193v.045c.653.08 1.171.104 1.558.074.95 0 1.51-.025 1.677-.074h.045c.199-.09.336-.264.415-.52l3.117-7.318c.257-.611.341-.89.252-.83l-.682.549c-.833.672-1.88 1.81-3.148 3.414zm.326 25.527c-1.069.672-2.4 1.137-3.991 1.395a6.132 6.132 0 0 1-1.158.118c-.327-.03-.505-.068-.534-.118l-.045-.09c.119-.168.455-.281 1.008-.341.04 0 .971-.209 2.791-.623 1.97-.654 3.255-1.584 3.859-2.79.643-1.228.688-2.247.133-3.058-.622-.921-1.685-1.297-3.19-1.13-1.433.13-2.79.605-4.067 1.426-1.968 1.247-3.493 3.191-4.57 5.833l-1.767 4.333.594-.371.638-.238a4.059 4.059 0 0 1 1.723-.193c.978.1 1.744.465 2.298 1.098.485.573.698 1.277.639 2.108-.09.93-.79 2.038-2.107 3.324-1.574 1.504-3.18 2.25-4.825 2.24-.78-.03-1.414-.37-1.899-1.023-.137-.257-.253-.464-.34-.624-.11-.227-.179-.356-.208-.385l-.09-.297-.253.177c-.117.06-.217.13-.296.207-1.73 1.12-3.131 1.709-4.2 1.767-.92.03-1.623-.098-2.109-.385a1.712 1.712 0 0 1-.459-.46c-.285-.358-.346-.877-.176-1.56.176-.495.39-1.053.636-1.676l.833-2.108.222-.534c.138-.425.109-.737-.09-.935-.198-.228-.52-.298-.966-.207a.807.807 0 0 0-.251.044c-.525.109-.983.231-1.38.37-.652.2-1.063.39-1.231.58-.158.198-.89 1.8-2.196 4.808l-.4.92c-.168.367-.343.619-.52.758-.197.178-.495.25-.892.223a.27.27 0 0 1-.236-.135c-.11-.138-.11-.436 0-.89l.177-.535-.52.296c-.11.061-.216.126-.326.195-1.76.95-3.517 1.418-5.267 1.409a2.765 2.765 0 0 1-2.018-.934c-.367-.387-.55-.692-.55-.92l-.133-.298-.016.045-.238.163c-1.533 1.268-3.042 1.886-4.525 1.856-.872-.03-1.52-.213-1.945-.548-.228-.357-.342-.55-.342-.58l-.016-.342-.296.15c-1.434.938-2.997 1.378-4.689 1.32-.752-.03-1.312-.342-1.676-.936-.199-.585-.312-.89-.342-.92v-.415l-.342.252c-1.87 1.315-3.266 1.972-4.184 1.972-.822-.027-1.426-.211-1.813-.548-.227-.326-.34-.504-.34-.534l-.09-.475-.297.327c-.228.286-.574.554-1.038.802-.94.513-2.018.755-3.236.727a2.38 2.38 0 0 1-.861-.15c-.504-.189-.935-.52-1.29-.994-.367-.525-.552-.93-.552-1.217l-.088-.208-.208.075c-1.01.385-1.87.708-2.58.965-1.445.533-2.311.802-2.598.802-.505 0-.757-.04-.757-.12.14-.137.277-.237.416-.297a69.31 69.31 0 0 0 2.94-.875c1.364-.457 2.15-.766 2.358-.935.395-.328.652-.664.771-1.01.198-.504.728-1.192 1.589-2.063.187-.197.395-.41.623-.638 1.693-1.583 3.324-2.37 4.897-2.36.92 0 1.637.173 2.153.519.068.03.171.07.31.12l.772-.163c.723-.19 1.168-.283 1.337-.283.544 0 .9.078 1.068.238-.167.256-.495.425-.98.504-.415.029-.904.693-1.468 1.988-.92 2.179-1.41 3.453-1.47 3.83l-.044.075c0 .285.085.509.252.668.15.167.327.251.534.251 1.296.031 2.617-.557 3.963-1.765l.089-.09c.276-.237.475-.435.593-.593.08-.129.195-.406.343-.832l.014-.074c2.167-4.967 3.409-7.811 3.725-8.533.416-.872 1.133-1.865 2.151-2.985 1.277-1.434 2.54-2.408 3.785-2.922 1.208-.505 2.241-.802 3.101-.892.585-.04.95-.008 1.099.09.168.168.222.297.164.386l-.164.046h-.09c-1.899-.06-3.527.37-4.882 1.291-.604.455-1.33 1.257-2.18 2.404-.813 1.068-1.332 1.887-1.56 2.448l-4.08 10.004c-.229.68-.229 1.192 0 1.527.166.288.449.451.844.49.417.031.99-.039 1.722-.208.702-.186 1.251-.394 1.647-.623.496-.226.812-.395.95-.505v-.043l.044-.044c.03-.06 1.465-3.35 4.303-9.87.832-1.8 1.88-3.379 3.147-4.734 1.514-1.614 3.102-2.631 4.763-3.058 3.195-.852 5.308-.43 6.337 1.262.543.83.504 1.85-.12 3.058a6.501 6.501 0 0 1-1.305 1.81c-.79.852-1.76 1.538-2.908 2.064-1.148.564-2.261.876-3.34.936-.771.058-1.197-.012-1.275-.208l.045-.134c.137-.11.555-.193 1.246-.251 1.038-.03 2.161-.323 3.37-.876 1.214-.565 2.086-1.19 2.61-1.87.724-.92 1.157-1.743 1.307-2.464.077-.574 0-1.153-.239-1.737-.285-.633-1.047-1.064-2.283-1.291-2.553-.455-5.047.64-7.481 3.28-.712.781-2.79 5.016-6.233 12.704l-.338.743c-.355.742-.386 1.36-.09 1.853.229.308.495.462.802.462 1.295.087 2.502-.313 3.62-1.203.198-.148.382-.223.549-.223h.238l.282.178-.09-.386c-.069-.198-.083-.455-.043-.773a4.078 4.078 0 0 1 .533-1.825c.514-.909 1.263-1.711 2.243-2.404 1.146-.85 2.308-1.276 3.486-1.276.86 0 1.48.258 1.854.772a.46.46 0 0 1 .074.119c.346.622.361 1.198.045 1.72-.03.06-.07.135-.12.223-.641.891-1.765 1.634-3.367 2.227-1.207.444-2.024.593-2.448.444h-.104l-.149.045c-.099.09-.148.317-.148.683-.03.335-.01.649.058.934.19.497.5.773.936.832 1.494.119 2.849-.143 4.066-.787.426-.199.812-.394 1.157-.594.475-.257.876-.486 1.202-.681l.09-.091c.129-.227.484-.93 1.067-2.106.594-1.218.91-1.91.951-2.08v-.088c.167-.425.148-.722-.059-.89l-.104-.134c0-.11.14-.207.415-.296.288-.07.614-.085.98-.046.277.059.436.12.476.18l.058.118c.198.257.395.37.595.34l.385-.117c.028 0 .059-.015.088-.045.613-.258 1.157-.422 1.632-.491.446-.098.812-.128 1.1-.089.613.06 1.043.293 1.29.698.228.375.278.781.149 1.216l-1.706 4.394c-.11.474-.05.87.177 1.186.198.24.48.357.845.357.456-.03 1.129-.212 2.02-.549.92-.327 1.553-.618 1.899-.875l1.082-.728.045-.015a15 15 0 0 0 .252-.683c1.435-3.76 2.671-6.609 3.71-8.548 1-1.959 2.187-3.602 3.562-4.927 1.959-1.84 4.096-2.806 6.411-2.895 2.037-.048 3.329.47 3.872 1.56.267.525.361 1.128.282 1.81-.088.584-.266 1.06-.533 1.425-.79 1.013-1.62 1.784-2.491 2.32zM86.34 5.788c.138.307-.119.693-.773 1.157-.049.09-.137.202-.266.343-.733.713-1.37 1.656-1.915 2.833h-.015c-.12.209-.238.427-.356.655h.044l-.207.503-.385.965-.594 1.366a44 44 0 0 0-1.677 3.607l-.238.564c-.228.465-.251.881-.074 1.246.09.158.247.239.475.239.91.067 1.756-.223 2.537-.876.2-.09.356-.134.476-.134h.253l.192.134c0 .029.02.059.058.09l-.192.164v.044c-1.157.92-2.29 1.38-3.398 1.38-.643-.08-1.119-.233-1.425-.46h-.058a4.33 4.33 0 0 0-.252-.446v-.073c-.168.167-.37.32-.609.46v-.076c-.683.376-1.48.573-2.39.593-.236 0-.455-.038-.654-.119h.031a2.184 2.184 0 0 1-.978-.743 1.213 1.213 0 0 1-.134-.25c-.831.682-1.533 1.053-2.108 1.112h-.06c-1 0-1.627-.233-1.884-.697v.045c-.277-.307-.347-.717-.209-1.233v-.044a40.76 40.76 0 0 1 1.129-2.805l.163-.34v.044c.06-.269.02-.485-.12-.654-.097-.168-.35-.168-.756 0-.999.208-1.601.412-1.81.61-.168.167-.683 1.33-1.544 3.487h-.045l-.34.609c-.138.336-.263.552-.372.65-.147.14-.396.209-.742.209-.138 0-.212-.05-.223-.148-.118-.13-.118-.373 0-.727v-.047c-.88.517-1.584.774-2.107.774-.564 0-.99-.144-1.277-.431l-.267-.343v-.073l-.015-.118-.045.043v-.043c-.109.246-.346.454-.712.624l.045-.045c-.643.355-1.42.533-2.33.533-.584 0-1.099-.287-1.545-.86-.226-.347-.34-.624-.34-.834h-.088v.06c-2.018.762-3.18 1.145-3.488 1.145-.415 0-.607-.065-.578-.195v-.044c.038-.099.138-.188.296-.268h.016c2.146-.604 3.334-.994 3.561-1.172a3.51 3.51 0 0 0 .446-.638c.167-.425.687-1.044 1.558-1.855 1.148-1.118 2.26-1.651 3.34-1.603.663 0 1.157.12 1.484.357h-.016c.09.009.173.034.253.074l.49-.148c.475-.129.771-.179.89-.149.358 0 .634.048.832.149l.075.074v.074c-.05 0-.075.004-.075.015-.2.148-.43.276-.697.386h-.045c-.278.028-.59.449-.937 1.261-.583 1.434-.92 2.306-1.01 2.612a.48.48 0 0 0 .135.356v.03c.059.068.172.102.342.102.633 0 1.285-.206 1.959-.623a.64.64 0 0 1 .207-.37c.08-.07.154-.164.222-.281l.03-.06c.119-.267.307-.673.564-1.218.435-.89.693-1.39.772-1.498v.045c.06-.327.035-.533-.075-.623-.029 0-.044-.024-.044-.074v-.045l-.015-.073c-.03-.158.086-.251.343-.282.205-.11.469-.11.786 0 .168 0 .267.016.297.046h.074v.044l.06.104a.683.683 0 0 0 .326.282l.281-.133h-.015c.9-.425 1.592-.581 2.077-.46.543.019.9.217 1.07.593h-.046c.198.258.256.575.178.951l-1.218 3.19c-.088.297-.067.554.06.772.119.137.316.222.594.252.287-.05.82-.317 1.604-.801a6.4 6.4 0 0 0 .414-.253.233.233 0 0 1-.03-.104v-.028c-.088-.386-.044-.792.133-1.218.168-.337.554-.826 1.158-1.47l.043-.044.418-.415h.045c1.246-1.188 2.437-1.748 3.576-1.677.682 0 1.217.108 1.602.327.029-.08.056-.15.073-.208.17-.426.357-.867.566-1.322.138-.356.307-.746.504-1.171 0-.05.03-.104.09-.163a7.02 7.02 0 0 1 .756-1.308c0-.018.01-.028.03-.028.543-.95 1.133-1.746 1.765-2.39v.015c.496-.554 1.04-.97 1.634-1.247a.295.295 0 0 1 .207-.133h.133l.046.012zm-6.188 8.845a.705.705 0 0 0-.148-.28c-.288-.386-.827-.467-1.618-.238-.93.216-1.617.523-2.063.92-.643.456-1.065 1.083-1.262 1.885-.018.068-.03.197-.03.385v.044c-.089.437-.08.798.03 1.084v.045c0 .09.045.158.132.207v.059c.288.307.673.504 1.158.595h.059c.564.019 1.23-.282 2.003-.906l.134-.254c0-.028.014-.044.043-.044h.075v-.014c.131-.347.627-1.508 1.487-3.487zm-10.937 4.63v.09c-.03-.01-.046-.039-.046-.09h.046zm52.949-4.437c-.424.446-.697.857-.817 1.233v.059l.135.237c.168.1.337.134.503.104.723-.06 1.356-.292 1.9-.698.614-.543.86-1.014.743-1.41-.099-.237-.361-.356-.788-.356-.59-.027-1.152.25-1.676.831zm-8.578-4.11a.776.776 0 0 1-.045.312c-.097.196-.312.372-.637.52-.564.197-.906.123-1.025-.223l-.045-.12.045-.206c.119-.22.332-.377.639-.476.555-.218.91-.152 1.068.193zm.018-6.365c-1.23.919-2.065 1.863-2.508 2.832-.201.386-.383.763-.55 1.129-1.208 2.614-2.157 4.784-2.85 6.515l-.28.64c-.328.86-.531 1.449-.61 1.766-.15.604-.05 1.005.296 1.2.367.23.827.204 1.382-.073.393-.227.691-.45.89-.669.097-.139.362-.68.788-1.631.394-.94.623-1.51.68-1.708a.642.642 0 0 0-.207-.58l-.089-.073c0-.148.391-.262 1.173-.341.393-.03.648.01.756.119.06.057.035.233-.075.519l-1.26 3.102c-.398.813-.496 1.371-.298 1.678.06.197.208.312.446.34.85.089 1.696-.257 2.538-1.038l.044-.059v-.09c.018-.217.074-.48.164-.787a4.35 4.35 0 0 1 .786-1.558 13.7 13.7 0 0 0 .342-.386c.158-.169.316-.323.473-.46.961-.92 1.93-1.426 2.912-1.515a.347.347 0 0 1 .149-.044c.562-.05 1.002.078 1.318.386.297.257.397.484.297.682-.089.226-.316.342-.681.342-.11 0-.208-.081-.297-.238-.06-.435-.321-.669-.786-.698h-.046c-.851-.089-1.707.538-2.569 1.884a2.724 2.724 0 0 0-.297.713 3.16 3.16 0 0 0-.132.55c-.099.594-.069 1.082.09 1.47 0 .03.016.058.043.088.2.368.51.589.937.667.662.12 1.32.012 1.975-.325.266-.177.542-.386.83-.623l-.045-.238c-.031-.1-.014-.276.045-.534.167-.505.514-1.093 1.04-1.767.514-.632 1.181-1.147 2.001-1.543.753-.376 1.455-.564 2.109-.564.463 0 .812.129 1.038.386a.975.975 0 0 1 .177.772c-.147.691-.85 1.4-2.106 2.12-.585.367-1.271.511-2.064.432-.316 0-.503.055-.564.164-.077.414-.077.736 0 .964.118.198.317.382.594.549.09.058.187.119.297.178.614.277 1.389.218 2.33-.178a4.62 4.62 0 0 0 .904-.46c.96-.544 1.653-1.047 2.078-1.513.22-.23.422-.342.609-.342h.045c0 .138-.178.366-.535.682-.565.554-1.336 1.083-2.316 1.589-.028.028-.058.044-.088.044-1.287.682-2.493.99-3.621.92a2.366 2.366 0 0 1-1.292-.445c-.286-.228-.43-.386-.43-.475l-.073-.119-.223.03c-.08.03-.148.058-.208.089-1.504.554-2.597.83-3.28.83h-.165a3.986 3.986 0 0 0-.473-.06 2.78 2.78 0 0 1-.624-.295c-.367-.228-.55-.371-.55-.43l-.117-.134-.132.09c-1.436.584-2.301.846-2.597.787-.459-.01-.836-.159-1.145-.445-.445-.456-.767-.608-.965-.46-.88.604-1.72.905-2.523.905a1.64 1.64 0 0 1-.564-.104 1.373 1.373 0 0 1-.444-.43c-.168-.228-.253-.41-.253-.548l-.09-.297-.251.177c-.95.534-1.701.871-2.255 1.01-1.307.385-2.42.547-3.34.49-.98 0-1.569-.135-1.766-.402-.14-.227.093-.608.697-1.143.425-.386 1.192-1.657 2.3-3.814l.045-.103a.506.506 0 0 0 .015-.431c-.07-.129-.386-.222-.95-.28h-.34a7.568 7.568 0 0 0-1.426.088c-.544.09-.821.134-.831.134l-.046.044-1.571 2.064c-1.266 1.503-2.473 2.567-3.622 3.19a6.745 6.745 0 0 1-3.785.742c-1.008-.07-1.695-.401-2.061-.994l-.09-.222c.167-.168.327-.223.476-.164.394.504 1.067.771 2.017.801 1.8.029 3.453-.713 4.957-2.227.625-.652 1.864-2.304 3.725-4.957l.313-.518c1.72-2.415 4.02-5.23 6.901-8.445l.43-.386h-.046c-.78.188-2.017.202-3.711.044-.296-.028-1.083-.158-2.359-.386-1.959-.335-3.441-.46-4.452-.37-1.148.05-2.325.549-3.533 1.498-1.087.813-1.928 1.771-2.522 2.881a3.285 3.285 0 0 0-.49 1.514c-.058.495-.01.895.148 1.201.397.742 1.197 1.212 2.405 1.409 1.118.19 2.464-.023 4.036-.637 1.465-.595 2.685-1.34 3.667-2.242.136-.108.32-.218.548-.325l.045.073c0 .228-.03.373-.091.43-.85.92-2.098 1.756-3.739 2.51-1.327.623-2.588.92-3.784.89-1.236-.03-2.265-.39-3.088-1.084-.217-.197-.409-.48-.577-.846-.169-.424-.252-.8-.252-1.127 0-.713.276-1.528.829-2.45.624-1.01 1.455-1.938 2.495-2.79 2.354-1.898 5.549-2.315 9.585-1.246 1.207.307 2.47.52 3.786.64 1.266.108 2.092.093 2.478-.044.306-.121.588-.134.846-.047.228.03.372.128.43.298.11.198.08.41-.09.638l-.13.104a45.138 45.138 0 0 0-1.248 1.574c-.228.355-1.271 2.888-3.132 7.598v.045c-1.01 2.613-1.554 3.985-1.633 4.126-.228.484-.605.99-1.128 1.514l-.267.297c-.11.137-.11.266 0 .386.197.238 1.01.207 2.434-.089 1.345-.307 2.39-.766 3.131-1.38l.045-.046.742-1.972c.168-.457.757-1.761 1.765-3.919.594-1.267 1.12-2.345 1.575-3.236.326-.712.617-1.3.875-1.764.693-1.328 1.924-2.42 3.694-3.282 1.465-.712 2.757-1.068 3.873-1.068a4.2 4.2 0 0 1 1.425.267c.594.199 1.048.466 1.366.801.524.584.787 1.188.787 1.811-.029.98-.212 1.776-.55 2.39-.325.605-.93 1.231-1.81 1.886-1.178.909-2.327 1.458-3.444 1.646a3.03 3.03 0 0 1-.385.03.805.805 0 0 1-.49-.074c-.178-.06-.268-.105-.268-.133l-.03-.09.12-.06h.384c.13-.028.353-.107.669-.237.248-.07.56-.168.936-.297 1.573-.525 2.69-1.206 3.355-2.048.524-.673.816-1.5.875-2.478.09-1.733-.93-2.656-3.057-2.774-1.297-.085-2.676.419-4.14 1.51z" fill="#231F20" mask="url(#b)"/></g></svg>