<svg xmlns="http://www.w3.org/2000/svg" height="83.907" width="279.84"><path d="M10.056 56.161h-.08L5.075 41.945H0v19.29h3.87V48.041l.078-.015 4.77 13.21h2.623l4.77-13.183.08.013v13.17h3.868v-19.29H15.01L10.056 56.16m20.72-2.118l2.146-6.797h.08l2.132 6.797zm4.173-12.097h-3.96l-6.506 19.29h4.04l1.3-4.16h6.252l1.312 4.16h4.042l-6.48-19.29m25.501 19.29l-6.055-9.724 5.724-9.566h-4.504l-3.618 6.836-3.563-6.836h-4.478l5.723 9.566-5.87 9.724h4.518l3.722-6.955 3.723 6.955h4.677m22.224-10.856c-.556.587-1.372.88-2.45.88h-3.51v-6.332h3.51c1.086 0 1.905.302 2.457.907.552.604.828 1.372.828 2.299 0 .909-.279 1.658-.835 2.246zm2.783-6.738c-1.272-1.13-3.017-1.696-5.233-1.696h-7.38v19.29h3.87V54.24h3.51c2.216 0 3.96-.56 5.233-1.682 1.27-1.121 1.908-2.606 1.908-4.45 0-1.847-.637-3.335-1.908-4.466m16.986 14.626H95.35V41.945h-3.87v19.29h10.96v-2.967m8.727-4.226l2.146-6.797h.08l2.132 6.797zm.212-12.097l-6.505 19.29h4.04l1.3-4.16h6.252l1.313 4.16h4.04l-6.479-19.29h-3.96m18.334 6.293l.08-.013 7.775 13.01h3.868v-19.29h-3.868V54.93l-.08.013-7.775-12.998h-3.87v19.29h3.87V48.238m30.063-4.849c-1.324-1.148-3.161-1.722-5.51-1.722-2.252 0-4.072.748-5.458 2.246-1.386 1.497-2.081 3.42-2.081 5.77v3.828c0 2.359.71 4.282 2.133 5.77 1.422 1.488 3.29 2.233 5.604 2.233 2.271 0 4.05-.583 5.339-1.749 1.29-1.166 1.917-2.778 1.883-4.835l-.027-.081h-3.75c0 1.255-.285 2.185-.855 2.789-.57.605-1.432.909-2.59.909-1.218 0-2.17-.469-2.856-1.405-.684-.936-1.025-2.146-1.025-3.63v-3.856c0-1.475.324-2.679.973-3.61.65-.931 1.552-1.398 2.71-1.398 1.245 0 2.165.302 2.762.908.596.605.894 1.525.894 2.762h3.764l.025-.08c.036-2.084-.61-3.7-1.935-4.85m22.153-1.443h-4.785l-5.284 7.883h-1.086v-7.883h-3.87v19.29h3.87V53.18h1.417l5.325 8.055h4.928l-7.193-10.32 6.677-8.97M44.92 71.95h3.212v2.991c-.202.32-.565.603-1.077.846-.521.248-1.203.373-2.027.373-1.077 0-1.963-.397-2.632-1.178-.672-.786-1.013-1.805-1.013-3.032v-2.203c0-1.195.327-2.187.971-2.95.643-.76 1.502-1.146 2.551-1.146 1.025 0 1.826.267 2.381.79.555.522.836 1.195.836 2.004v.048h.984l.036-.075.005-.021c.022-1.064-.356-1.953-1.126-2.643-.767-.686-1.815-1.035-3.116-1.035-1.351 0-2.469.472-3.322 1.407-.85.934-1.28 2.158-1.28 3.637v2.187c0 1.508.444 2.754 1.322 3.704.88.948 2.025 1.43 3.403 1.43 1.079 0 1.987-.19 2.697-.57.711-.379 1.206-.793 1.473-1.23l.007-.012v-4.255H44.92v.933m10.687-.811h5.349v-.933h-5.35v-4.382h6.144v-.933h-7.224v12.022h7.265v-.925h-6.184v-4.849m14.091-.719c-1.195-.336-2.04-.7-2.509-1.084-.464-.379-.7-.869-.7-1.456 0-.621.261-1.153.774-1.58.516-.43 1.24-.65 2.151-.65.883 0 1.615.26 2.175.768.556.505.838 1.152.838 1.92v.05h1.002l.028-.083.003-.016c.022-1.03-.344-1.893-1.089-2.564-.743-.668-1.738-1.006-2.957-1.006-1.157 0-2.123.3-2.872.89-.753.594-1.133 1.362-1.133 2.287 0 .907.341 1.635 1.014 2.164.664.523 1.647.964 2.92 1.315 1.152.346 1.977.72 2.455 1.113.473.387.712.884.712 1.476 0 .641-.283 1.172-.84 1.579-.563.408-1.303.617-2.199.617-.875 0-1.665-.225-2.347-.668-.676-.44-1.02-1.118-1.02-2.018v-.05h-.993l-.028.084-.002.014c-.026 1.159.408 2.053 1.291 2.658.878.6 1.921.904 3.1.904 1.178 0 2.17-.287 2.947-.857.783-.57 1.18-1.338 1.18-2.28 0-.895-.339-1.624-1.009-2.167-.664-.537-1.637-.994-2.892-1.36m9.639.719h5.35v-.933h-5.35v-4.382h6.144v-.933h-7.224v12.022h7.264v-.925h-6.184v-4.849m11.259-6.249h-1.08v12.023h7.24v-.925h-6.16V64.89m11.252 0h-1.08v12.023h7.239v-.925h-6.16V64.89m13.748 5.53c-1.195-.336-2.039-.7-2.509-1.084-.464-.379-.7-.869-.7-1.456 0-.621.261-1.153.774-1.58.517-.43 1.24-.65 2.151-.65.883 0 1.615.26 2.175.768.557.505.839 1.152.839 1.92v.05h1l.03-.083.003-.016c.021-1.03-.345-1.893-1.09-2.564-.743-.668-1.738-1.006-2.957-1.006-1.157 0-2.124.3-2.872.89-.752.594-1.133 1.362-1.133 2.287 0 .907.341 1.635 1.014 2.164.664.523 1.648.964 2.92 1.315 1.152.346 1.978.72 2.455 1.113.473.387.713.884.713 1.476 0 .641-.284 1.172-.84 1.579-.563.408-1.303.617-2.2.617-.874 0-1.665-.225-2.347-.668-.676-.44-1.02-1.118-1.02-2.018v-.05h-.992l-.028.084-.002.014c-.027 1.159.406 2.053 1.29 2.658.878.6 1.921.904 3.1.904 1.178 0 2.17-.287 2.948-.857.782-.57 1.18-1.338 1.18-2.28 0-.895-.34-1.624-1.01-2.167-.662-.537-1.636-.994-2.892-1.36m16.522-1.713l.029-.082.002-.016c.021-1.205-.365-2.166-1.15-2.855-.784-.688-1.842-1.035-3.142-1.035-1.335 0-2.427.492-3.248 1.462-.817.968-1.231 2.232-1.231 3.754v1.94c0 1.529.414 2.792 1.231 3.755.82.965 1.913 1.454 3.248 1.454 1.286 0 2.338-.357 3.13-1.06.793-.705 1.183-1.66 1.162-2.838l-.03-.098h-1.002v.048c0 .982-.291 1.739-.863 2.25-.576.513-1.382.774-2.397.774-1.021 0-1.853-.4-2.472-1.19-.618-.792-.933-1.834-.933-3.094v-1.957c0-1.245.315-2.278.933-3.074.62-.792 1.45-1.194 2.472-1.194 1.015 0 1.82.268 2.396.795.573.525.864 1.269.864 2.211v.05h1.001m12.223 1.785h-6.675v-5.601h-1.08v12.022h1.08v-5.488h6.675v5.488h1.083V64.89h-1.083v5.601m7.63 2.123l2.246-6.195 2.215 6.195zm2.74-7.723h-.995l-4.394 11.955-.022.067h1.12l1.204-3.325h5.164l1.176 3.292.012.033h1.118l-4.372-11.991-.012-.031m8.121 12.022h1.082v-5.585h5.48v-.942h-5.48v-4.562h6.313v-.933h-7.394v12.022m9.785-11.089h4.201v11.089h1.074v-11.09h4.062v-.932h-9.337v.933m65.274 16.911c-22.487 0-40.78-18.294-40.78-40.781 0-22.484 18.293-40.777 40.78-40.777 22.482 0 40.778 18.293 40.778 40.777 0 22.487-18.296 40.781-40.779 40.781zm0-82.73c-23.134 0-41.954 18.819-41.954 41.949 0 23.134 18.82 41.952 41.953 41.952 23.132 0 41.952-18.818 41.952-41.952 0-23.13-18.82-41.949-41.952-41.949"/><path d="M265.452 48.78c-1.303 1.15-3.301 1.244-4.11 1.98-.42.384-.611.987-.155 2.065.261.62.442.697-.451.935-1.45.388-1.648 2.292-3.495 1.943-.74-.14-.208.333.058.36 1.057.098 1.474-.198 1.846-.546.37-.347.864-.972 1.432-1.186.584-.222 1.176-.207 1.186.231.008.334-.73.865-1.042 1.01.378.196 1.535.783.547 1.454-.768.522-1.827-.202-1.98-.292-.227-.131-.663-.066-.519.11.571.699 2.102.516 1.827.886-1.412 1.9-.261 3.01-.69 4.918-.437 1.936-3.086 2.996-5.126 3.365-6.936 1.251-13.685-4.65-17.639-9.098.36-.844.314-1.946-.048-1.555-.34.37-.284.986-1.109 1.195-1.59.4-2.275-2.36-2.767-2.843-1.932-1.893-2.698-4.568-1.544-6.906 1.166-2.363 3.586-1.89 4.554-.46 1.201 1.778.645 2.788 1.328 3.319.958.746 1.924.08 2.182.01.731-.2.675 1.73 3.167 1.64 2.681-.096 2.377-4.266 2.756-4.635 3.44-3.355 1.684-6.348 1.059-7.045-.168-.186.382-1.418.585-1.463 2.02-.447 3.161-1.737 3.777-3.102 0 0 3.355-.057 4.55-2.473.318-.647 1.306.623 3.548-1.139.252-.198.489-.103.584.129 1.44 3.531 2.046 4.507 1.936 6.307-.082 1.31 3.493 8.576 3.753 9.203.29.7.333 1.388 0 1.683zm-15.924 18.406c-1.021 3.531-1.535 4.941-.001 8.776.202.51.356.893-.092.817-3.086-.53-3.752-1.037-13.444-.216-.698.06.228-1.351.113-2.312.885-.113 2.3-.518 2.6-1.96.364-1.748-.855-3.032-.725-3.283 1.373-2.68-.09-5.649-1.251-10.625-.11-.466.16-.67.364-.45 6.227 6.74 10.196 8.08 12.34 8.716.213.063.17.307.096.537zm-18.877 9.338c-.638-.158-2.398-2.96-.966-6.304.152-.353 2.348-.133 2.716-.022.367.11-.302 2.74 2.715 3.903.308.119-.013 3.528-4.465 2.423zm-4.531-1.68c-.332-1.47-.465-4.018.145-4.584.122-.112 1.95-.375 1.916.043-.141 1.755-.849 3.715.487 5.667.5.73-2.101.846-2.548-1.125zm10.783-1.734c-2.375.823-3.314-1.954-2.923-2.553.236-.36 1.735.409 2.903-.344.898-.58 1.394 2.42.02 2.897zm-14.027-3.943c-.136-.793.627-1.555.61-3.286-.02-2.12-2.635-5.031-4.409-6.902.832 0 1.922-.197 3.144-.763 2.639-1.221 3.156-4.026 3.232-4.14.035-.053-.589-.177-1.488-.188.096-.049.194-.096.292-.15 2.58-1.383 3.256-4.375 3.134-4.44-.05-.027-.692-.128-1.592-.104.25-.085.512-.18.78-.287 2.73-1.084 3.493-4.123 3.396-4.221-.043-.043-.59-.152-1.384-.173a9.03 9.03 0 0 0 .741-.327c2.493-1.238 3.357-4.025 3.228-4.117-.056-.04-.563-.138-1.3-.15a9.553 9.553 0 0 0 1.8-.586c2.67-1.169 3.533-3.725 3.419-3.833-.051-.047-.503-.172-1.183-.228a16.36 16.36 0 0 0 1.736-.495c2.641-.902 3.71-3.427 3.552-3.441-.357-.034-.848-.207-1.485-.318a9.958 9.958 0 0 0 2.609-.534c2.855-.965 3.867-2.682 3.917-3.428.003-.048-.341-.198-.897-.32.653-.119 1.31-.28 1.852-.5 2.665-1.08 3.773-3.7 3.861-3.915a15.312 15.312 0 0 0 1.554-.602c.277-.127.532-.26.766-.398.13.1.338.248.647.447.404.259.545.319.347.49-9.07 7.726-15.866 17.484-18.832 22.227-.083.133-.239.11-.491.093-3.176-.21-4.977 3.57-3.556 7.115-.179.721-1.687 2.113-1.8 2.213-.115.102-.419.544.097.498.743-.067 1.691-1.256 2.143-1.79.19.235.887.817.55 1.146-2.698 2.65-5.371 4.076-5.58 4.177-1.01.494 1.687.835 6.283-3.32.271-.245.591.958 1.002 1.474-.79 2.605 1.156 7.634.853 9.212-.053.277-.217 1.056-1.136 1.074-4.555.094-5.001-.114-7.319.568-1.081.319-.797 1.032-.012.819.888-.24 1.82-.601 6.752-.294 1.206.075 2.583-.244 2.592-2.279.008-1.845-1.458-7.346-.964-8.099.655.492 1.13.512 1.378.556-.066 1.795 2.824 7.593 1.538 10.79-.478 1.188-2.576 1.1-6.164.744-6.109-.604-8.088.716-8.213-.015zm-.116 4.415c-.26-1.053-.156-2.504.204-2.894.69-.338 1.959-.468 1.98-.063.035.644-.436 2.174.117 4.082-.128.3-1.854.17-2.301-1.125zm-2.085-18.559c1.542-.731 3.842-.556 3.716-.454-.127.1-.732 2.336-2.47 3.208-1.736.871-2.885.637-3.508.518.935-1.023.738-2.547 2.262-3.272zm-3.204 2.879c-.52-.493-1.646-1.735-1.754-3.337a2.288 2.288 0 0 1-.008-.233c-.005-1.722.758-3.414.946-3.605.19-.188 2.132 1.322 2.161 3.488.027 1.877-.835 2.955-1.345 3.687zm-1.416 2.23a.203.203 0 0 0-.018.015c-4.297-5.063-6.564-11.334-6.564-18.193 0-15.668 12.746-28.414 28.416-28.414 4.135 0 8.107.864 11.824 2.568a7.727 7.727 0 0 0-1.632 1.038c-3.27-1.386-6.564-2.037-10.192-2.037-14.802 0-26.849 12.043-26.849 26.845 0 6.42 2.004 12.063 5.928 16.797-.227.344-.545.829-.913 1.38zm-.058 9.928c-8.638-6.882-13.808-17.271-13.808-28.106 0-19.682 16.012-35.698 35.7-35.698 5.743 0 11.504 1.44 16.56 4.073a.163.163 0 0 1 .031.267c-1.485 1.297-3.548 3.841-4.067 4.552a29.308 29.308 0 0 0-12.524-2.78c-16.314 0-29.589 13.273-29.589 29.586 0 7.28 2.465 13.92 7.12 19.25-.268.62-.743 1.976-.743 3.77 0 1.484.275 3.193 1.32 5.086zM242.5 26.425c-.21-.145 1.704-2.286 3.261-2.878 1.524-.58 3.17-.473 3.303-.398.133.076-.998 1.93-2.836 2.675-1.728.7-3.52.747-3.728.601zm-4.844 3.935c.029-.114 1.614-2.346 3.248-2.912 1.554-.538 3.456-.177 3.66-.091.204.084-1.1 2.032-3.096 2.632-1.798.54-3.839.486-3.812.371zm-4.794 4.55c-.105-.05 1.338-2.51 2.956-3.133 1.55-.594 3.083-.056 3.552-.024.382.024-.529 1.805-2.653 2.59-1.77.652-3.584.701-3.855.567zm-4.273 4.725c-.128-.096 1.761-2.567 3.336-3.297 1.388-.64 3.199-.505 3.35-.405.151.102-.738 2.182-2.566 2.982-1.741.763-3.993.818-4.12.72zm-3.564 4.776c.075-.185 1.405-2.577 2.97-3.31 1.55-.726 3.425-.572 3.551-.53.13.04-.712 2.155-2.486 3.036-1.754.87-4.111.99-4.035.804zm-2.744 4.713c.115-.607 1.199-2.618 2.83-3.344 1.637-.728 3.529-.675 3.743-.586.215.088-.68 2.231-2.325 3.02-1.841.88-2.579.367-4.248.91zm.14 1.35c1.83-.794 3.827-.672 3.91-.594.085.077-.583 2.327-2.362 3.281-1.776.952-3.781 1.04-3.963.814-.101-.126.584-2.704 2.415-3.5zm-2.91-5.015c.703.354 1.551 1.378 1.631 3.273.079 1.902-1.282 3.511-1.816 3.765-.37-1.453-1.073-1.758-1.061-3.2.015-1.576.815-3.306 1.247-3.838zm4.831-2.5c-.038 2.438-1.57 3.867-2.028 4.32-.282-.484-.841-1.727-.88-3.032-.073-2.514.966-3.406 1.416-3.892.215.72 1.512 1.29 1.492 2.603zm3.414-5.118c0 .471-.059.739-.194 1.2-.504 1.733-1.528 2.464-2.082 3.248-.223-.513-.634-1.241-.636-2.341-.006-2.097 1.272-3.885 2.073-4.448.303-.013.839 1.263.839 2.341zm3.348-2.64c-.707 1.541-1.163 1.592-1.984 2.553-.14.164-.756-1.467-.16-3.515.476-1.64 1.574-2.247 2.106-2.803.21-.219.791 2.127.038 3.765zm4.121-4.27c-.695 1.213-1.327.934-2.484 2.656-.128.19-.433-1.424.259-3.604.534-1.68 2.189-2.724 2.365-2.766.265-.063.687 2.272-.14 3.714zm4.424-4.03c-1.35 2.016-1.428 1.326-2.907 3.297-.081.11-.11-2.572.416-3.752.834-1.862 2.276-2.957 2.491-2.995.216-.037.747 2.338 0 3.45zm4.048-3.002c-1.104.896-1.607 1.49-2.25 2.54-.22.356-.754-1.988.68-4.238.88-1.378 2.63-2.615 2.591-2.451-.128.55.848 2.634-1.021 4.15zm3.69-5.205c1.138-1.348 3.069-2.433 3.285-2.3.221.137-.324 2.219-1.571 3.445-1.259 1.24-3.205 2.446-3.432 2.432-.227-.015.695-2.364 1.717-3.577zm-29.598 31.832c-.576-.663-1.11-1.028-1.167-.989-.16.112-1.093 1.71-1.417 3.572-1.819-3.476-2.825-6.992-2.99-11.155-.557-14.144 11.29-25.535 25.745-25.484 3.297.012 6.009.621 8.97 1.824-.662.828-1.144 1.821-1.47 2.654-.015-.767-.216-1.364-.16-1.841.034-.296-2.047.352-3.898 3.298-.428.68-.696 1.437-.861 2.132-.039-1.104-.297-1.964-.373-1.945-.19.052-2.3.923-3.402 3.502a8.22 8.22 0 0 0-.437 1.37c-.09-.787-.295-1.304-.357-1.301-.14.005-2.352.915-3.442 3.564a6.653 6.653 0 0 0-.45 1.831c-.198-.922-.554-1.487-.667-1.343-.764.968-2.256 1.398-3.048 3.84a5.754 5.754 0 0 0-.27 1.68c-.329-.825-.79-1.302-.895-1.28-.218.046-2.471 2.188-2.808 4.347a6.593 6.593 0 0 0 .06 2.306c-.43-.695-1.003-1.206-1.235-1.914-.353.189-2.263 1.983-2.324 4.28-.025.894.11 1.734.293 2.443-.634-1.153-1.536-1.693-1.634-1.632-.166.1-1.59 1.642-1.92 4.409-.079.648.001 1.27.157 1.832zm33.277-31.265c1.444-.65 2.842-.66 2.991-.641.328.039-.73 1.919-2.615 2.727-1.942.835-3.393.986-3.558.904-.248-.122 1.646-2.297 3.182-2.99zm-12.854 29.62c-.395-.086-.543-.86-.462-1.164.178-.68 1.222-2.083 1.598-2.575.093-.123.285-.01.305.138.227 1.63-.001 3.918-1.441 3.601zm7.696-10.235c-.863.584-2.103-.209-1.856-.563 1.6-2.283 3.733-3.872 4.586-4.402 1.371-.853 1.515-.913 1.587-.431.044.29.059 1.784-1.047 2.996-.916 1.007-1.834.922-2.308 1.027-.318.072-.298.922-.962 1.373zm-2.424 11.626c-1.607.986-2.479-.897-2.707-1.227-.097-.141-.353-.556-.215-1.263.111-.557.203-1.313-.164-3.714-.16-1.057 2.024-3.675 2.516-4.133.51-.476 1.252.237 1.3 1.01.092 1.47-.733 2.243-1.574 2.87-1.035.77-1.231 1.772-1.035 2.04.077.104.541.108.745-.326.623-1.326 2.403-1.994 2.686-2.688.444-1.083.118-1.78.076-2.236-.038-.398.352-.498.645-.456.379.058.547.572.739 1.072 1.15 2.998-1.744 4.81-2.211 5.52-.216.328.448 2.765-.801 3.53zm8.109-18.222c-.081-.48 3.413-1.656 3.535-1.308.224.642-.722 2.366-1.892 2.797-1.328.49-1.882.344-1.831.154.092-.347.265-1.2.188-1.643zm8.247-2.135c-.412 1.176-3.662 2.22-3.508 1.395.069-.374.008-.865.256-.906.36-.063 1.388-.421 2.984-.83.16-.04.369.05.268.34zm-3.283-8.665c.477-.301.99-.429 1.292-.13 1.05 1.036-1.137 1.618-.683 2.414.747 1.305 1.935 2.554 2.982 3.36.494.38.565 1.233-1.318 1.624-1.896.392-9.442 2.38-13.424 6.6-4.985 5.281-8.153 12.123-8.586 11.182-.436-.947-1.435-1.1-1.279-1.37 7.159-12.333 18.377-22.02 21.016-23.68zm-34.759 50.325c-.282.056-1.188.092-.985-1.099.125-.734.923-1.043 1.327-.625-.087.57-.283 1.128-.342 1.724zm40.707-32.827c-.581-1.213-.183-2.01-.356-2.898-.127-.654-1.101-2.811-1.723-4.305-.292-.703 1.504-.531.178-3.071-.038-.076 1.845-.77-.038-2.198-1.053-.8-1.794-1.781-2.376-2.667-.081-.122-.157-.366.012-.518 1.064-.945 1.087-2.307-.068-3.004-.834-.503-1.792.008-2.673.578-.29.189-.436.304-.74.18-.153-.063-.45-.272-.717-.456 1.086-1.05 1.297-2.087 1.212-2.259-.059-.116-1.843-.517-4.052.397a9.014 9.014 0 0 0-.156-.086c.909-1.574.398-2.685.33-2.76l-.005-.003c1.656-2.313 3.301-3.852 4.925-5.33 0 0 .036-.038.038-.038.105-.109.144-.227-.058-.353-.17-.108-.218-.133-.426-.248-5.446-3.031-11.655-4.625-17.922-4.625-20.332 0-36.87 16.542-36.87 36.87 0 11.78 5.976 23.14 15.742 30.198.652.47 1.103.65 1.103.65.163.056.33.055.432-.078l.144-.19a.547.547 0 0 0 .13-.339c0-.27-.39-.51-.847-1.187-1.32-1.96-1.906-4.187-1.906-6.052 0-2.04.623-3.896 1.816-5.445 1.472 1.534 4.682 4.354 4.612 6.919-.078 2.88-2.772 2.74-2.192 4.9.366 1.355 1.379.796 1.555 1.825.304 1.782 2.7 2.92 3.744 2.764.252-.038.467.172.967.68.713.722 2.466.625 3.245.483.739-.136 1.668.54 3.215.37 1.934-.214 2.428-.364 3.254-.376 1.398-.02 9.004-.133 14.414.715.932.145 1.228-.275.809-1.002-1.959-3.414-2.23-6.313-1.101-9.964 1.997.136 4.869.676 8.65-1.598 1.342-.805 2.092-2.524 2.027-3.804-.043-.83-.407-1.882-.19-2.693.287-1.087.5-1.062.814-1.282 1.444-1.016.401-1.822.179-1.904.436-.177.914-1.126.41-1.832-.258-.275-1.045-2.486-.137-2.945.979-.498 2.095-.709 3.22-1.202.773-.323 1.39-1.226.95-2.422-.53-1.439-3.485-8.206-3.574-8.395"/><path d="M257.377 35.98c-1.953.072-4.221 2.464-4.961 2.796-.777.349-.5.569-.05.404.974-.355 2.36-1.84 4.274-2.532 1.51-.545 1.412.698 1.98.629.265-.03-.113-1.34-1.243-1.298m-.278 5.612c-.088.365-2.179.198-3.316.099-.271-.023-.726-.065.141-.583.683-.408 1.62-1.094 2.848-1.333.1-.018.297.013.348.243.127.574.07 1.2-.021 1.574zm.72-3.697c-.16.038.17.873-.678.925-1.836.113-3.29 1.851-4.41 2.372-1.119.522-1.352.515-1.519.559-.15.04-.093.232.03.248 4.682.626 6.48.455 6.52.284.077-.321-.26-.483-.19-.69.176-.522.264-1.509.064-2.187-.087-.32.692-.107.692-.538 0-.233-.235-1.039-.51-.973m5.394 10.365c-.357-.005-1.799.654-2.341.999-.312.2-1.779 1.102-1.672-.327.036-.501.361-1.745.353-2.084-.013-.516-.427-.312-.435-.006-.017.717-.161 1.263-.308 2.104-.126.72.499 1.61 1.471 1.092.808-.43 1.91-1.169 2.884-1.355.25-.048.295-.42.048-.423m-27.117 5.116c-.278-.104-.2.467-.575.405-.49-.084-.079-.525-.717-1.202-.319-.336-1.118-.478-1.707-1.42-.933-1.494-.13-4.819 1.232-4.342.759.266.625 2.029.397 3.223-.138.735 1.006 1.099 1.108.841.175-.432-.42-.39-.557-.785-.208-.606 1.403-3.033-.703-3.735-1.538-.513-2.549 1.422-2.365 3.564.157 1.806 1.357 2.55 2.045 2.806.927.344.224 1.612 1.474 1.619.553.002.668-.862.368-.974m12.301-40.025a.161.161 0 0 0 .183-.052l2.6-3.29a.163.163 0 0 0-.066-.252c-.145-.06-.293-.118-.44-.175a.165.165 0 0 0-.188.05l-2.613 3.304a.163.163 0 0 0 .075.253c.149.053.3.107.449.162m-4.826-1.341c.15.028.298.059.449.09A.162.162 0 0 0 244.2 12l1.523-3.767a.163.163 0 0 0-.115-.22 30.415 30.415 0 0 0-.506-.108.095.095 0 0 0-.11.059l-1.544 3.824a.161.161 0 0 0 .122.22m-5.362-.525c.152.001.303.004.453.008a.162.162 0 0 0 .166-.147l.376-4a.163.163 0 0 0-.158-.177l-.456-.012a.165.165 0 0 0-.166.148l-.375 4.003a.162.162 0 0 0 .16.177m-5.211.39l.448-.067a.165.165 0 0 0 .138-.191l-.764-3.942a.161.161 0 0 0-.183-.131c-.152.021-.301.046-.45.07a.161.161 0 0 0-.134.193l.76 3.94c.017.086.1.143.185.128m-5.32 1.218a.162.162 0 0 0 .199.08l.432-.147a.162.162 0 0 0 .093-.226l-1.804-3.621a.163.163 0 0 0-.2-.082c-.144.05-.289.103-.432.155a.163.163 0 0 0-.092.225l1.804 3.616m-4.972 2.298a.166.166 0 0 0 .204.034c.132-.077.267-.151.403-.225a.164.164 0 0 0 .044-.25l-2.699-3.083a.163.163 0 0 0-.205-.032l-.399.237a.163.163 0 0 0-.037.246l2.69 3.073m-4.618 3.261a.16.16 0 0 0 .196-.008l.361-.3a.162.162 0 0 0-.008-.259l-3.412-2.37a.162.162 0 0 0-.2.012c-.117.103-.236.207-.352.311a.163.163 0 0 0 .016.256l3.399 2.359M214.06 22.8c.067.025.14.006.185-.05.099-.123.2-.245.302-.366a.16.16 0 0 0-.066-.255l-3.92-1.528a.165.165 0 0 0-.189.053 26.7 26.7 0 0 0-.287.377.163.163 0 0 0 .071.25l3.904 1.52m-7.41 4.286l4.203.587a.163.163 0 0 0 .166-.085c.074-.141.153-.283.232-.424a.162.162 0 0 0-.12-.24l-4.224-.588a.164.164 0 0 0-.17.088c-.07.144-.142.287-.21.43a.163.163 0 0 0 .122.232m-2.297 6.371l4.285-.41a.163.163 0 0 0 .139-.113c.05-.156.099-.313.15-.468a.161.161 0 0 0-.17-.212l-4.31.41a.163.163 0 0 0-.142.12c-.044.156-.085.314-.127.471a.163.163 0 0 0 .175.202m3.251 5.094c.018-.167.04-.333.06-.5a.162.162 0 0 0-.214-.175l-4.177 1.454a.161.161 0 0 0-.11.143l-.03.492c-.007.116.107.2.216.163l4.148-1.442a.16.16 0 0 0 .107-.135m-.104 5.702c-.014-.172-.023-.344-.034-.517a.163.163 0 0 0-.252-.127l-3.782 2.485a.163.163 0 0 0-.072.158c.021.166.044.333.068.498a.164.164 0 0 0 .252.114l3.746-2.464a.159.159 0 0 0 .074-.147m.946 5.7c-.045-.174-.088-.349-.132-.524a.162.162 0 0 0-.278-.07l-3.076 3.387a.165.165 0 0 0-.035.163l.17.488a.164.164 0 0 0 .275.053l3.04-3.346a.16.16 0 0 0 .036-.151m1.574 5.059l-2.17 4.129a.155.155 0 0 0 .003.157c.09.154.181.309.273.461a.164.164 0 0 0 .284-.01l2.146-4.083a.158.158 0 0 0 .001-.149c-.083-.167-.167-.333-.247-.501a.163.163 0 0 0-.29-.004m3.051 4.641a.163.163 0 0 0-.289.057l-1.161 4.793a.164.164 0 0 0 .033.145c.122.142.244.28.367.419.087.099.25.058.28-.07l1.148-4.738a.163.163 0 0 0-.027-.135 30.545 30.545 0 0 1-.35-.471"/></svg>