<?xml version="1.0" encoding="UTF-8"?>
<svg width="20px" height="20px" viewBox="0 0 20 20" version="1.1" xmlns="http://www.w3.org/2000/svg" xmlns:xlink="http://www.w3.org/1999/xlink">
    <title>icons/article/fullscreen</title>
    <g id="icons/article/fullscreen" stroke="none" stroke-width="1" fill="none" fill-rule="evenodd">
        <g id="launch.20baf437" transform="translate(1.000000, 1.000000)" fill="#212121">
            <path d="M16,16 L2,16 L2,2 L9,2 L9,0 L2,0 C0.9,0 0,0.9 0,2 L0,16 C0,17.1 0.9,18 2,18 L16,18 C17.1,18 18,17.1 18,16 L18,9 L16,9 L16,16 Z M11,0 L11,2 L14.6,2 L4.8,11.8 L6.2,13.2 L16,3.4 L16,7 L18,7 L18,0 L11,0 Z" id="Shape"></path>
        </g>
    </g>
</svg>